<svg class="main-svg" xmlns="http://www.w3.org/2000/svg" xmlns:xlink="http://www.w3.org/1999/xlink" width="1000" height="500" style="" viewBox="0 0 1000 500"><rect x="0" y="0" width="1000" height="500" style="fill: rgb(255, 255, 255); fill-opacity: 1;"/><defs id="defs-829360"><g class="clips"><clipPath id="clip829360xyplot" class="plotclip"><rect width="840" height="320"/></clipPath><clipPath class="axesclip" id="clip829360x"><rect x="80" y="0" width="840" height="500"/></clipPath><clipPath class="axesclip" id="clip829360y"><rect x="0" y="100" width="1000" height="320"/></clipPath><clipPath class="axesclip" id="clip829360xy"><rect x="80" y="100" width="840" height="320"/></clipPath></g><g class="gradients"/><g class="patterns"/></defs><g class="bglayer"><rect class="bg" x="80" y="100" width="840" height="320" style="fill: rgb(229, 236, 246); fill-opacity: 1; stroke-width: 0;"/></g><g class="layer-below"><g class="imagelayer"/><g class="shapelayer"/></g><g class="cartesianlayer"><g class="subplot xy"><g class="layer-subplot"><g class="shapelayer"/><g class="imagelayer"/></g><g class="minor-gridlayer"><g class="x"/><g class="y"/></g><g class="gridlayer"><g class="x"><path class="xgrid crisp" transform="translate(185,0)" d="M0,100v320" style="stroke: rgb(255, 255, 255); stroke-opacity: 1; stroke-width: 1px;"/><path class="xgrid crisp" transform="translate(290,0)" d="M0,100v320" style="stroke: rgb(255, 255, 255); stroke-opacity: 1; stroke-width: 1px;"/><path class="xgrid crisp" transform="translate(395.01,0)" d="M0,100v320" style="stroke: rgb(255, 255, 255); stroke-opacity: 1; stroke-width: 1px;"/><path class="xgrid crisp" transform="translate(500.01,0)" d="M0,100v320" style="stroke: rgb(255, 255, 255); stroke-opacity: 1; stroke-width: 1px;"/><path class="xgrid crisp" transform="translate(605.01,0)" d="M0,100v320" style="stroke: rgb(255, 255, 255); stroke-opacity: 1; stroke-width: 1px;"/><path class="xgrid crisp" transform="translate(710.01,0)" d="M0,100v320" style="stroke: rgb(255, 255, 255); stroke-opacity: 1; stroke-width: 1px;"/><path class="xgrid crisp" transform="translate(815.02,0)" d="M0,100v320" style="stroke: rgb(255, 255, 255); stroke-opacity: 1; stroke-width: 1px;"/></g><g class="y"><path class="ygrid crisp" transform="translate(0,389.96)" d="M80,0h840" style="stroke: rgb(255, 255, 255); stroke-opacity: 1; stroke-width: 1px;"/><path class="ygrid crisp" transform="translate(0,314.18)" d="M80,0h840" style="stroke: rgb(255, 255, 255); stroke-opacity: 1; stroke-width: 1px;"/><path class="ygrid crisp" transform="translate(0,238.41)" d="M80,0h840" style="stroke: rgb(255, 255, 255); stroke-opacity: 1; stroke-width: 1px;"/><path class="ygrid crisp" transform="translate(0,162.64)" d="M80,0h840" style="stroke: rgb(255, 255, 255); stroke-opacity: 1; stroke-width: 1px;"/></g></g><g class="zerolinelayer"/><path class="xlines-below"/><path class="ylines-below"/><g class="overlines-below"/><g class="xaxislayer-below"/><g class="yaxislayer-below"/><g class="overaxes-below"/><g class="plot" transform="translate(80,100)" clip-path="url(#clip829360xyplot)"><g class="scatterlayer mlayer"><g class="trace scatter trace0a05ab" style="stroke-miterlimit: 2; opacity: 1;"><g class="fills"/><g class="errorbars"/><g class="lines"><path class="js-line" d="M0,245.57L2.04,245.03L2.19,245.05L3.21,245.96L3.35,246.32L5.84,250.86L5.88,250.6L5.98,250.1L8.17,242.98L8.31,242.71L9.48,241.96L9.63,241.97L11.72,242.47L11.81,242.82L14.45,249.31L14.55,249.31L14.59,249.56L15.17,248.59L15.31,248.4L17.36,247.02L17.47,247.02L19.98,244.66L20.13,244.6L20.71,245.02L20.85,245.27L23.34,248.21L23.42,247.85L23.48,247.61L25.81,241.68L25.96,241.47L26.26,241.09L26.55,241.87L26.69,242.2L29.22,246.57L29.31,246.57L32.23,246.32L32.38,245.92L34.71,241.65L34.85,241.65L35.02,241.31L35.58,241.94L35.73,242.09L38.36,243.63L38.49,243.57L41.42,242L41.56,241.78L43.77,239.69L43.81,239.77L43.9,239.92L46.38,242.68L46.52,242.68L49.59,246.15L49.73,245.74L49.88,245.35L52.21,241.3L52.36,241.3L52.51,241L53.08,241.23L53.23,241.28L55.71,241.35L55.86,241.11L58.2,238.46L58.31,238.46L61.26,246.06L61.69,245.63L61.83,245.5L64.61,242.78L64.75,242.37L67.23,238.02L67.38,238.01L71.03,238.76L71.17,238.84L78.62,242.6L78.72,242.6L82.69,239.85L82.84,239.7L87.52,234.89L87.79,235.29L87.94,235.48L90.86,237.74L91,237.8L93.49,238.12L93.63,237.97L96.26,236L96.27,234.11L96.3,237.97L96.98,237.13L97.13,237.33L99.19,239.28L99.38,239.01L99.46,238.91L102.1,236.8L102.13,236.83L102.23,236.88L105.02,237.87L105.06,237.75L105.15,237.55L107.48,233.67L107.63,233.5L107.93,233.19L108.21,233.82L108.36,234.11L110.54,237.05L110.69,237.05L111.71,239.2L111.86,239.48L113.76,242.21L113.9,242.04L114.04,241.87L119.6,236.94L119.63,236.99L119.73,237.11L122.37,239.03L122.47,239.03L125.43,238.45L125.47,238.36L128.04,234.84L128.19,234.84L129.21,234.68L129.36,234.69L131.26,234.76L131.27,237.28L131.3,232.68L131.98,237.74L132.13,238.25L134.19,243.31L134.23,243.2L134.32,243L136.41,239.76L136.5,239.66L137.1,239.12L137.38,239.77L137.52,240.08L140.02,243.68L140.06,243.48L140.15,243.15L142.34,237.36L142.48,237.1L143.94,236.2L144.09,236.17L148.8,235.9L148.9,235.97L155.32,240.6L155.46,240.82L157.52,243.08L157.65,242.9L157.8,242.71L160.13,240.8L160.27,240.8L165.09,236.58L165.1,236.58L172.52,234.13L172.67,234.26L175.15,235.49L175.3,235.34L178.07,233.46L178.21,233.54L182.44,234.97L182.59,235L183.76,235.17L183.77,236.22L183.8,234.28L184.48,236.65L184.63,236.9L186.69,239.3L186.73,239.18L186.82,238.97L189.3,235.02L189.44,235.02L190.17,234.42L190.32,234.35L193.67,232.37L193.82,232.24L196.15,231.09L196.3,231.08L199.21,230.18L199.36,230.08L201.98,229.04L202.13,229.06L206.36,228.6L206.41,228.59L207.96,227.58L208.11,227.45L211.17,225.62L211.32,225.57L213.65,224.13L213.8,223.97L216.86,221.6L217.01,221.53L218.77,220.72L218.81,221.65L219.63,220.15L219.78,220.06L224.3,218.02L224.44,218.02L224.6,217.9L224.64,218.81L224.73,217.67L228.96,212.77L229.11,212.63L240.21,201.42L240.34,201.28L281.76,154.81L281.9,154.72L283.51,152.91L283.65,152.65L285.86,149.31L286.28,149.67L286.42,149.76L288.47,149.9L288.61,149.9L289.78,148.44L289.92,148.26L292.99,145.68L293.13,145.6L294.6,144.69L294.88,145.36L295.03,145.66L296.93,147.88L297.07,147.95L297.53,148.13L297.66,147.6L297.8,147.14L300.13,141.47L300.28,141.47L301.01,139.71L301.15,139.42L304.36,134.99L304.51,134.85L306.84,133.42L306.99,133.49L309.19,133.69L309.23,133.51L312.14,125.84L312.24,125.68L323.47,107.15L323.61,107.15L324.34,105.96L324.49,105.76L334.55,92.69L334.64,92.58L335.44,91.59L335.48,90.01L335.57,91.47L336.15,90.94L336.3,90.8L341.3,85.41L341.32,87.79L342.13,84.03L342.28,83.8L344.19,81.07L344.23,78.83L344.32,80.94L344.9,80.35L345.05,80.21L347.11,78.07L347.15,76.75L347.24,77.98L347.93,77.48L347.97,77.45L350.74,75.97L350.88,76L352.97,75.54L353.07,75.29L355.86,69.83L355.99,69.92L356.13,70L358.03,70.12L358.17,70.07L361.82,68.37L361.97,68.19L364.6,65.42L364.74,65.56L364.88,65.68L366.93,66.39L367.07,66.38L368.97,65.57L369.11,65.49L372.32,63.18L372.47,63.06L374.36,62.46L374.51,62.45L376.84,61.44L376.99,61.3L379.19,59.48L379.39,60L379.47,60.18L381.65,63.31L381.8,63.42L382.82,63.25L382.93,63.2L388.95,60.27L389.09,60.29L390.99,60.88L391.13,61.41L393.47,66.74L393.61,66.74L393.77,67.12L394.2,65.18L394.34,64.58L396.69,58.14L396.72,58.17L396.82,58.23L399.3,58.88L399.45,58.88L400.47,59.63L400.61,59.73L402.95,61.68L403.09,62.02L405.45,65.48L405.48,65.37L405.57,65.17L408.05,61.46L408.2,61.46L408.93,61.43L409.07,61.49L412.13,61.75L412.28,61.71L414.91,61.68L415.05,61.76L417.38,62.1L417.53,61.89L420.03,59.42L420.07,59.6L420.16,59.91L422.49,65.51L422.63,65.73L423.51,65.85L423.66,65.78L425.99,64.47L426.13,63.84L428.62,56.6L428.73,56.6L428.81,53.9L428.82,58.89L429.34,57.19L429.49,57.38L431.82,60.2L431.97,61.13L434.3,71.3L434.45,71.3L434.6,72.12L435.18,70.46L435.32,70.1L440.44,58.38L440.86,58.86L441.01,59.01L443.5,61.47L443.64,62.12L445.97,69.61L446.11,69.61L446.27,70.21L446.84,69.13L446.99,68.89L449.76,64.49L449.91,64.03L452.24,59.12L452.39,59.09L455.03,58.62L455.07,58.88L455.16,59.33L457.34,67.05L457.49,67.38L458.95,68.96L459.09,69.03L460.85,69.75L460.89,69.49L460.99,69L463.47,60.95L463.61,60.95L464.34,60.22L464.49,60.17L466.82,59.97L466.97,60.35L469.3,64.35L469.45,64.35L470.18,64.79L470.32,64.82L472.8,64.57L472.95,64.33L475.44,61.61L475.48,61.64L478.64,63.41L478.78,63.77L481.27,67.82L481.28,64.38L481.31,71.04L481.32,64.34L481.99,66.13L482.14,65.84L487.11,56.13L487.24,56.58L487.39,57.04L489.72,61.81L489.87,61.81L490.74,65.2L490.89,65.73L492.94,70.87L492.98,70.65L493.07,70.23L495.55,63.21L495.7,63.21L496.43,61.19L496.57,60.85L498.77,57.11L498.81,57.26L498.91,57.54L501.09,61.95L501.24,62.14L504.01,64.49L504.16,64.58L506.78,65.22L506.93,65.22L507.66,64.61L507.8,64L510.29,57.12L510.4,57.12L510.44,56.85L511.02,57.09L511.16,57.13L513.49,58.19L513.5,58.25L515.97,67.32L516.12,67.32L516.28,67.99L516.85,67.35L516.99,67.21L519.47,65L519.62,64.55L521.8,59.78L521.95,59.78L522.11,59.35L522.53,60.35L522.68,60.64L525.03,63.57L525.07,63.54L528.22,62.96L528.37,63.1L530.99,64.79L531.14,64.79L534.05,64.09L534.2,63.81L536.7,60.86L536.74,60.92L539.3,63L539.45,63L542.53,64.93L542.57,64.85L544.99,62.17L545.14,62.08L546.89,61.87L547.03,61.86L549.22,61.02L549.37,60.9L551.27,59.69L551.42,59.96L551.55,60.19L554.47,63.32L554.62,63.44L560.03,66.93L560.07,66.68L562.49,58.53L562.64,58.22L562.94,57.64L563.37,58.09L563.5,58.21L566.58,60.81L566.72,61.06L568.78,63.72L568.91,63.56L569.05,63.4L571.83,61.41L571.97,61.42L574.89,60.66L575.03,60.51L577.66,59.04L577.81,59.15L580.87,61.68L581.01,62.02L583.37,65.68L583.43,65.62L583.49,65.57L586.27,64.44L586.28,63.5L586.31,65.27L586.99,63.22L587.14,63L589.47,60.58L589.62,60.58L592.97,59.77L593.12,59.69L595.03,59.14L595.16,59.57L595.31,60.01L597.64,64.52L597.78,64.52L598.51,65.74L598.66,65.93L600.87,68.04L600.91,67.84L600.99,67.5L603.47,61.19L603.62,61.19L603.77,60.76L604.2,61.59L604.35,61.83L606.54,64.11L606.65,64.11L608.87,67.2L609.01,67.34L612.22,69.13L612.37,69.13L615.58,71.41L615.72,71.38L618.44,71.55L618.49,71.81L620.97,79.48L621.12,79.48L621.85,80.74L621.99,80.9L625.93,83.82L626.08,83.9L627.97,85.67L628.12,85.85L630.6,89.57L630.74,89.95L634.83,98.11L634.97,98.35L639.49,105.97L639.64,106.37L641.74,112.42L642.26,111.7L642.41,111.9L648.39,120.82L648.54,121.17L651.32,125.96L651.37,126.01L654.08,129.77L654.22,130.07L657.29,134.59L657.43,134.72L662.39,139.31L662.54,139.74L665.03,145.53L665.16,145.39L665.31,145.26L667.06,144.8L667.2,144.83L670.12,146.14L670.25,146.23L671.29,147.75L671.43,148.09L674.2,152.31L674.35,152.28L676.54,152.73L676.55,152.81L680.91,154.73L681.06,154.79L685.58,156.07L685.72,155.9L687.91,154.74L688.06,154.73L691.28,154.06L691.29,152.84L692,156.35L692.14,156.76L694.2,161.17L694.24,160.86L694.33,160.3L696.52,151.27L696.66,150.91L697.11,149.95L697.54,150.37L697.68,150.49L700.45,153.18L700.6,153.55L703.52,158.76L703.66,158.92L705.86,160.83L705.9,160.58L706,160.1L708.18,152.77L708.33,152.46L711.39,147.36L711.54,147.36L711.69,147.07L712.12,148.33L712.27,148.71L716.2,157.03L716.35,157.3L717.53,159.21L717.66,158.49L717.81,157.82L719.85,151.62L720,151.34L720.44,150.61L720.73,151.11L720.87,151.34L723.36,153.47L723.4,153.31L725.68,148.63L725.83,148.45L726.28,147.97L726.29,145.19L726.32,150.69L727,149.35L727.14,149.59L732.11,156.25L732.15,156.19L732.25,156.05L734.73,154.02L734.87,154.02L735.31,152.95L735.45,152.5L737.94,147.31L737.98,147.44L738.08,147.7L740.41,151.48L740.56,151.62L743.78,153.68L743.82,153.63L743.91,153.52L746.69,151.78L746.73,151.9L749.16,155.59L749.31,155.72L749.61,155.97L749.75,155.38L749.89,154.82L752.23,148.71L752.37,148.71L753.1,147.83L753.25,147.75L755.45,147.01L755.49,147.25L755.58,147.68L758.06,155.67L758.21,155.67L758.93,156.55L759.08,156.63L761.29,157.67L761.41,156.94L761.42,156.89L763.89,148.24L764.04,148.24L764.19,147.61L764.77,148.02L764.91,148.09L767.68,148.59L767.78,148.59L770.16,148.92L770.31,149.26L772.94,153.3L772.98,153.27L773.08,153.2L775.86,152.32L775.9,152.48L778.48,158.09L778.62,158.09L779.35,159.58L779.5,159.82L782.12,162.71L782.27,162.81L785.04,163.73L785.18,163.61L787.54,162.59L787.58,162.74L787.66,162.99L790.49,168.58L790.58,168.64L793.51,171.19L793.64,171.96L796.33,182.02L796.37,182.09L799.48,186.73L799.62,186.73L802.12,187.47L802.16,187.66L804.73,194.49L804.87,194.49L805.75,198.37L805.89,198.97L808.96,208.07L809.1,208.37L816.39,221.46L816.54,221.46L817.27,223.15L817.41,223.45L820.62,230.67L820.77,231.09L822.53,235.64L822.96,235.44L823.1,235.4L824.85,235.71L825,235.79L826.02,237.11L826.16,237.36L829.96,242.3L830.1,242.46L833.02,246.53L833.17,246.74L834.2,248.21L834.48,247.46L834.62,247.12L836.52,244.81L836.67,244.74L837.69,245.26L837.78,245.37L840,247.8" style="vector-effect: none; fill: none; stroke: rgb(31, 119, 180); stroke-opacity: 1; stroke-width: 2px; opacity: 1;"/></g><g class="points"/><g class="text"/></g><g class="trace scatter trace9c2cc6" style="stroke-miterlimit: 2; opacity: 1;"><g class="fills"/><g class="errorbars"/><g class="lines"><path class="js-line" d="M0,204.1L0.58,213.7L1.03,211.72L1.17,211.17L2.93,205.71L2.97,206.94L3.06,209.35L4.08,220.87L4.23,220.15L4.38,219.46L6.85,211.39L7,211.07L8.76,207.01L8.8,208.15L8.9,210.37L9.48,215.72L9.77,214.59L9.92,214.01L11.68,207.53L11.72,208.48L11.81,210.33L12.1,212.62L12.54,210.77L12.69,210.16L14.59,204.14L14.63,205.4L15.75,220.37L15.9,220.21L16.04,219.5L17.51,213.91L17.65,215.48L17.79,216.97L18.08,216.24L18.23,215.66L20.43,209.38L20.47,210.04L20.56,211.32L20.85,214.13L21.35,212.96L21.44,212.77L23.34,205.45L23.42,207.54L23.48,208.41L23.77,210.13L24.21,209.36L24.35,209.12L26.26,206.57L26.29,207.49L26.3,207.72L26.98,216.96L27.27,216.2L27.42,215.69L29.18,210.21L29.22,210.78L29.31,211.75L32.09,207.76L32.13,208.79L32.67,216.6L33.1,215.7L33.25,215.41L35.02,211.58L35.06,212.73L35.15,214.76L35.29,217.08L35.9,214.8L36.02,214.41L37.93,209.66L37.97,210.26L38.06,211.41L40.84,207.92L40.88,209.28L41.27,215.31L41.71,214.39L41.86,213.98L43.77,209.67L43.81,210.21L43.9,211.16L44.19,213.23L44.63,212.59L44.77,212.39L46.68,210.24L46.72,211.49L47.54,217.14L47.83,216.72L47.98,216.52L52.37,211.71L52.47,211.71L52.79,214.56L53.38,214.14L53.52,214.04L58.34,210.76L58.38,211.5L58.63,214.35L59.21,213.84L59.36,213.72L61.26,212.34L61.3,212.95L61.35,213.54L61.41,213.97L61.98,213.6L62.13,213.51L67.52,211.26L67.67,211.22L70.02,210.57L70.06,211.32L70.15,212.65L71.03,212.77L71.17,212.74L84.6,209.28L84.63,209.71L84.73,210.56L84.88,211.35L85.46,211.17L85.61,211.12L87.52,210.51L87.56,211.25L87.65,212.54L88.52,212.52L88.67,212.49L96.29,210.78L96.3,210.28L96.31,211.27L96.98,210.65L97.13,210.62L99.19,210.16L99.23,210.58L99.31,211.33L99.46,212.24L100.04,212.13L100.19,212.1L109.96,209.4L110.11,209.36L110.86,209.16L110.89,209.9L110.98,211.21L111.13,213.05L111.86,212.85L112,212.81L119.6,210.72L119.63,211.46L119.73,212.9L119.88,214.72L120.61,214.45L120.75,214.4L131.26,211.12L131.27,212.95L131.3,209.52L131.98,210.99L132.13,210.94L137.1,209.36L137.14,210.11L137.38,213.59L137.96,213.36L138.11,213.3L142.93,211.67L142.97,212.3L143.21,213.52L143.79,213.2L143.94,213.13L148.46,211.81L148.61,211.81L153.86,209.64L154,209.59L157.52,208.64L157.56,209.38L157.8,212.54L158.38,212.39L158.52,212.36L163.36,211.16L163.4,211.91L163.49,212.65L164.07,212.54L164.21,212.51L169.19,211.49L169.23,212.54L169.61,216L170.21,215.87L170.34,215.84L179.52,213.22L179.67,213.18L190.46,210.88L190.61,210.85L201.26,208.62L201.3,209.34L201.35,209.6L210.44,206.61L210.59,206.54L217.01,203.59L217.15,203.52L218.77,202.75L218.81,203.53L219.63,202.2L219.78,202.11L224.6,199.25L224.64,197.99L224.73,199.13L225.32,198.67L225.46,198.56L232.46,193.11L232.61,192.99L236.84,189.12L236.98,188.94L251.13,172.05L251.28,171.85L275.05,139.13L275.19,138.91L280.03,131.96L280.06,133.28L280.15,133.93L280.74,132.91L280.88,132.67L285.86,124.6L285.9,126.29L286.13,129.93L286.71,129.07L286.86,128.86L288.77,126.25L288.78,127.38L288.81,125.05L288.82,128.3L289.49,125.71L289.63,125.51L295.61,116.49L295.76,116.27L335.13,55.57L335.28,55.57L335.48,54.15L335.57,56.51L336.01,55.76L336.15,55.51L338.36,52L338.43,53L338.49,53.72L338.63,53.97L338.92,53.46L339.07,53.2L341.3,49.48L341.32,53.36L341.99,48.27L342.13,48.02L344.19,44.64L344.23,40.42L344.32,44.4L344.9,43.39L345.05,43.14L347.11,39.78L347.15,35.36L347.24,39.54L347.93,38.36L347.97,38.3L350.03,34.99L350.07,35.76L350.15,37.12L350.3,39.26L350.91,38.42L351.03,38.24L355.86,30.91L355.9,32.56L356.13,36.99L356.72,36.16L356.86,35.95L358.77,32.39L358.81,34L359.2,39.82L359.63,39.22L359.78,39.02L361.68,36.5L361.72,37.06L361.82,37.87L364.15,33.57L364.3,33.06L364.6,32.1L364.64,33.51L364.74,34.96L365.03,37.62L365.61,36.83L365.76,36.63L366.78,34.12L366.93,33.56L367.52,31.53L367.65,33.58L367.8,33.31L370.43,28.67L370.47,30.07L370.86,34.9L371.36,34.25L371.45,34.14L372.9,31.02L373.05,30.5L373.35,29.53L373.39,31.09L373.43,32.31L373.63,34.45L374.07,32.68L374.22,32.14L376.27,26.31L376.3,27.4L376.55,33.57L377.13,32.38L377.28,32.1L379.19,27.8L379.22,29.16L379.32,31.79L379.76,36.99L380.05,35.76L380.2,34.92L382.1,26.81L382.14,28.37L382.38,32.55L382.93,29.96L382.97,29.79L385.03,22.9L385.07,24.24L385.59,37.14L386.04,35.25L386.18,34.69L387.95,28.96L387.98,30.29L388.07,32.63L388.36,35.85L388.8,33.05L388.95,32.21L390.85,24.11L390.89,25.67L391.43,34.46L391.86,33.08L392.01,32.65L393.77,28.3L393.78,31.94L393.81,25.76L394.49,37.03L394.63,36.53L396.69,29.83L396.72,31.2L396.82,32.54L396.97,32.59L397.11,31.82L399.6,21.39L399.64,22.93L399.74,25.93L400.32,34.84L400.61,34.32L400.76,34.03L402.52,31.03L402.56,31.57L402.66,32.6L402.8,33.22L403.09,32L403.24,31.29L405.45,21.28L405.48,22.82L406.01,32.06L406.45,30.57L406.59,30.11L408.35,25.8L408.39,27.32L408.93,37.97L409.36,36.47L409.51,36.01L411.27,28.92L411.42,30.53L411.55,31.7L414.19,22.25L414.22,23.73L414.32,26.62L414.91,38.88L415.34,37.3L415.49,36.81L417.11,28.8L417.15,30.29L417.24,32.68L417.38,33.8L417.82,32.06L417.93,31.59L420.03,24.81L420.07,26.19L420.74,34.71L421.04,32.97L421.18,32.24L422.94,25.15L422.98,26.6L423.07,29.41L423.5,37.03L423.95,35.34L424.09,34.84L425.85,28.26L425.89,29.6L425.99,32.23L426.13,32.87L426.57,31.9L426.72,31.6L428.73,26.39L428.74,25.75L428.81,25.32L428.91,28.91L429.05,31.06L429.2,31.68L429.49,30.6L429.63,30.1L431.69,22.43L431.73,23.86L431.82,26.64L432.11,33.04L432.7,30.68L432.84,30.04L434.6,24.01L434.64,25.31L434.74,27.83L435.32,37.64L435.76,36.25L435.91,35.66L437.52,28.53L437.56,28.75L437.57,30.62L437.95,34.28L438.39,32.86L438.53,32.19L440.44,24.33L440.48,25.49L440.57,27.73L441.01,36.27L441.45,34.06L441.59,33.08L443.35,24.29L443.39,25.68L443.43,26.77L443.78,34.47L444.36,31.85L444.51,30.97L446.27,22.98L446.31,24.38L446.36,25.76L446.7,33.05L447.14,30.66L447.28,29.93L449.19,22.65L449.23,23.67L449.32,25.66L450.05,37.78L450.49,35.73L450.64,34.9L452.1,28.08L452.14,29.1L452.24,31.07L452.68,36.03L453.11,33.73L453.26,32.82L455.03,23.98L455.07,25.37L455.16,27.8L455.59,35.76L456.04,33.42L456.18,32.52L457.94,23.73L457.98,25.12L458.07,27.81L458.36,31.79L458.8,30.16L458.95,29.49L460.85,22.54L460.89,23.53L460.99,25.22L461.86,35.22L462.16,34.2L462.3,33.38L463.77,26.56L463.81,27.57L463.91,29.54L464.34,36.63L464.78,33.44L464.93,32.48L466.69,23.73L466.73,25.13L466.82,27.83L467.26,36.7L467.7,33.51L467.84,32.55L469.6,23.83L469.64,25.22L469.74,27.93L470.03,33.79L470.47,30.84L470.62,29.94L472.52,21.05L472.56,22.04L472.66,23.98L473.39,35.22L473.82,32.7L473.97,31.9L475.44,25.22L475.48,26.35L475.57,28.39L476.01,36.55L476.45,33.88L476.59,32.92L478.35,24.25L478.39,25.64L478.43,26.74L478.93,36.5L479.37,34.42L479.51,33.49L481.28,23.51L481.32,24.83L481.36,26.95L481.7,32.72L482.14,29.78L482.28,28.88L484.2,19.97L484.24,20.96L484.32,22.71L485.05,34.17L485.49,31.55L485.64,30.75L487.11,24.18L487.15,25.2L487.24,26.99L487.78,36.36L488.26,33.23L488.41,32.35L490.03,24.67L490.07,25.91L490.16,27.87L490.74,35.45L491.18,32.83L491.32,31.92L492.94,24.04L492.98,25.18L493.07,27.42L493.37,31.36L493.8,28.38L493.95,27.47L495.86,18.43L495.9,19.41L495.99,21.15L496.72,33.04L497.16,30.71L497.3,29.88L498.77,23.03L498.81,24.03L498.91,25.94L499.64,33.93L499.93,32.2L500.07,31.35L501.7,23.85L501.74,24.82L501.82,26.52L502.26,32.07L502.7,29.2L502.84,28.32L504.61,20.07L504.65,21.3L504.74,23.46L505.47,31.64L505.76,30.48L505.91,29.57L507.53,21.68L507.57,22.8L507.66,24.79L508.39,30.69L508.53,29.73L508.68,28.81L510.44,20.06L510.48,21.05L510.57,22.98L511.3,33.85L511.74,31.13L511.89,30.23L513.36,23.02L513.43,24.83L513.49,25.87L513.93,29.85L514.22,28.2L514.37,27.22L516.28,17.43L516.32,18.64L516.36,19.6L517.57,35.13L517.72,34.26L517.87,33.41L519.2,26.39L519.32,29.32L519.39,30.25L519.47,30.67L519.76,29.13L519.91,28.1L522.11,16.41L522.14,17.4L522.24,19.34L522.93,30.77L523.41,27.51L523.55,26.6L525.03,19.19L525.07,20.32L525.16,22.31L525.6,30.85L526.04,28.57L526.18,27.71L527.94,19.06L527.98,20.02L528.07,21.89L528.66,30.07L529.1,27.8L529.24,26.94L530.87,19.16L530.99,21.37L531.14,23.65L532.3,33.51L532.45,33.46L532.6,32.65L533.78,25.13L533.91,27.92L534.05,30.72L534.2,31.44L534.49,29.22L534.64,28.18L536.7,16.99L536.74,17.98L536.82,19.72L537.99,31.77L538.14,31.51L538.28,30.64L539.61,23.01L539.74,26.47L539.89,29.74L540.47,33.06L540.76,31.45L540.91,30.55L542.53,22.69L542.57,23.9L542.66,26.02L542.95,31.75L543.39,29.18L543.53,28.28L545.44,18.98L545.48,19.8L545.58,21.39L546.74,29.61L546.89,29.83L547.33,30.46L547.47,29.56L547.62,28.41L548.37,23.33L548.5,26.4L548.64,27.57L548.93,29.51L549.22,27.55L549.37,26.63L551.27,17.27L551.31,18.4L551.36,19.38L551.99,29.29L552.43,26.47L552.58,25.58L554.2,17.91L554.24,19.14L554.33,21.29L555.22,35.27L555.49,33.66L555.64,32.84L557.11,25.91L557.14,27.02L557.24,29.05L557.53,31.67L557.93,28.87L557.97,28.62L560.03,18.28L560.07,19.26L560.16,20.98L560.74,30.6L561.18,28.2L561.33,27.37L562.94,19.86L562.98,20.69L563.08,22.3L563.8,31.26L564.1,29.33L564.24,28.41L565.87,20.3L565.9,21.3L565.99,23.05L566.72,35.63L567.16,33.03L567.3,32.19L568.78,25.36L568.82,26.37L568.91,28.15L569.35,32.61L569.64,31.43L569.78,30.43L571.7,20.65L571.74,21.81L571.83,23.84L572.41,30.28L572.7,28.32L572.85,27.39L574.62,18.58L574.65,19.58L574.74,21.34L575.33,29.26L575.76,26.7L575.91,25.83L577.53,18.09L577.57,19.1L577.66,20.86L578.53,31.57L578.83,29.7L578.97,28.83L580.44,21.84L580.48,22.98L580.58,25.19L581.01,32.98L581.45,29.83L581.6,28.87L583.37,19.99L583.41,21.14L583.43,21.83L583.93,29.45L584.37,27.06L584.51,26.11L586.31,16.83L586.32,20.02L586.36,19.46L586.56,24.02L586.7,26.88L586.85,29.52L587.28,27.19L587.43,26.32L589.2,17.37L589.24,18.38L589.33,20.14L590.06,30.05L590.35,28.7L590.49,27.84L592.11,19.85L592.15,20.93L592.24,22.52L593.12,31.2L593.41,29.34L593.56,28.44L595.03,21.09L595.07,22.24L595.16,24.26L595.6,28.78L595.92,26.48L596.03,25.7L597.94,16L597.98,17.15L598.08,19.4L598.95,31.72L599.24,29.89L599.39,29.02L600.87,22.02L600.91,23.05L600.99,24.88L601.58,30.92L601.87,29.31L602.01,28.36L603.77,19.52L603.81,20.69L603.91,22.65L604.35,29.47L604.78,27.32L604.93,26.4L606.7,17.76L606.74,18.73L606.83,20.44L607.85,33.66L608.14,32.22L608.28,31.42L609.61,25.47L609.65,26.53L609.74,28.59L610.62,38.6L610.76,37.7L610.91,36.83L612.53,28.45L612.66,30.47L612.81,31.32L612.95,31.75L613.1,30.72L613.24,29.73L615.44,18.63L615.48,19.65L615.58,21.64L616.16,29.25L616.45,27.14L616.6,26.15L618.36,17.2L618.4,18.52L618.44,19.55L619.22,35.91L619.51,34.05L619.66,33.17L621.27,25.49L621.36,27.57L621.38,27.98L622.66,42.6L622.72,42.29L622.87,40.98L624.2,29.73L624.47,33.14L624.62,32.16L627.11,19.11L627.15,20.14L628.41,38.48L628.56,37.65L628.7,36.86L630.03,29.06L630.07,30.27L630.16,32.38L631.62,51.69L631.76,51.2L632.94,42.15L633.08,44.98L633.22,47.67L634.54,54.86L634.68,53.51L635.87,40.53L636.14,43.31L636.29,44.6L637.45,52.33L637.6,51.11L637.74,49.91L638.78,42.67L639.06,44.75L639.2,45.74L640.66,53.14L640.81,52.94L640.95,51.79L641.7,46.78L641.74,35.26L642.56,52.87L642.7,53.72L643.58,57.68L643.72,56.49L643.87,55.35L644.65,45.36L644.74,51.72L646.2,60.92L646.35,59.75L646.49,58.41L647.53,50.54L647.66,53.76L647.81,57.03L649.99,89.8L650.14,91.21L651.89,99.32L652.04,99.81L653.5,102.16L653.64,102.29L658.73,106.92L658.74,106.87L658.89,106.06L659.2,104.55L659.4,107.08L659.47,107.83L661.66,110.01L661.95,109.56L661.96,108.81L662.11,108.12L662.24,109.95L662.39,110.73L666.47,114.81L666.62,113.74L667.94,100.31L668.08,104.05L668.22,107.56L668.66,113.93L669.1,112.71L669.24,112.35L669.54,110.57L669.68,108.87L670.87,98.05L670.99,101.28L671.14,104.55L672.16,115.87L672.31,115.52L672.45,115.19L673.78,110.92L673.91,111.88L674.06,112.8L674.93,117.23L675.37,116.41L675.52,116.16L675.95,114.17L676.1,112.83L676.7,106.17L676.83,109.73L676.97,113.32L677.99,125.94L678.14,124.61L678.29,123.36L679.61,107.83L679.74,111.34L679.89,114.66L680.91,127.44L681.2,126.76L681.35,126.45L681.64,125.28L681.79,123.66L682.54,116.39L682.81,120.46L682.95,120.27L685.44,107.48L685.48,108.94L686.16,121.33L686.45,120.05L686.6,119.17L688.37,110.09L688.44,112.11L688.5,113.52L689.22,125.81L689.37,124.93L691.28,110.61L691.3,111.49L691.31,108.76L692,120.99L692.14,122.15L692.58,125.2L692.87,123.13L693.02,121.88L694.2,113.88L694.4,116.31L694.47,117.19L695.06,122.88L695.5,120.35L695.64,119.57L697.11,109.21L697.15,110.58L697.25,113.25L697.83,119.65L698.12,117.76L698.27,116.87L700.04,108.89L700.07,110.36L700.16,112.93L700.75,123.64L701.18,121.15L701.33,120.39L702.94,110.52L702.98,112.03L703.08,114.97L703.81,128.6L704.1,126.97L704.25,126.21L705.86,117.87L705.9,119.34L706,122.19L706.14,126.26L706.72,122.3L706.87,121.3L708.79,111.87L708.82,113.25L708.91,115.69L709.2,120.79L709.64,118.34L709.79,117.56L711.69,110.17L711.73,111.75L712.7,120.36L712.85,120.43L714.61,113.16L714.65,114.67L714.75,117.27L715.77,126.06L715.91,125.93L717.53,119.64L717.57,120.8L717.66,122.12L717.81,123.11L718.1,121.28L718.25,120.43L720.44,111.7L720.48,113.29L720.73,119.18L721.32,116.67L721.37,116.48L723.36,110.7L723.4,112.08L723.93,122.84L724.37,121.96L724.52,121.64L726.29,117.56L726.31,119.43L726.33,119.23L726.56,122.88L727,120.73L727.14,120.08L729.19,112.33L729.23,113.95L729.33,116.31L729.77,122.73L730.22,120.34L730.35,119.74L732.11,113.33L732.15,114.06L732.25,115.48L732.54,118.96L732.98,117.01L733.12,116.42L735.04,110.75L735.08,112.2L735.45,122.01L736.05,119.63L736.18,119.13L737.94,114.05L737.98,115.73L738.23,120.41L738.81,118.18L738.95,117.61L740.86,111.94L740.9,113.13L741,115.45L741.58,121.88L741.87,120.44L742.02,119.73L743.78,113.39L743.82,114.2L743.91,115.79L744.5,122.64L744.93,121.02L745.08,120.52L746.69,115.7L746.73,117.29L746.83,119.48L747.12,121.69L747.56,119.96L747.7,119.42L749.61,114.23L749.65,115.87L749.89,120.49L750.48,119.19L750.62,118.63L752.53,113.32L752.57,114.96L753.25,126.31L753.54,124.87L753.68,124.12L755.45,117.43L755.49,119.03L755.58,120.51L757.33,114.57L757.48,114.17L758.36,112.08L758.4,113.47L758.44,114.57L758.93,122.35L759.37,120.62L759.52,120.09L761.29,115.39L761.33,116.25L761.36,116.92L761.85,123.46L762.43,122.53L762.58,122.31L764.19,119.22L764.23,120.69L764.33,122.83L764.91,120.52L765.06,119.95L767.11,114.25L767.15,115.9L767.39,118.62L767.98,117.53L768.12,117.28L769.29,113.99L769.43,113.62L770.04,112.26L770.08,113.73L770.16,116.31L770.89,127.07L771.18,126.11L771.33,125.66L772.94,121.51L773.08,122.81L773.23,123.77L773.96,121.87L774.1,121.35L775.86,116.58L775.9,117.97L776.14,122.11L776.73,120.22L776.87,119.65L778.79,114.25L778.83,115.96L779.21,127.05L779.79,124.85L779.93,124.33L781.69,119.68L781.73,121.4L781.98,126.97L782.56,125.16L782.71,124.62L784.62,119.4L784.66,120.78L784.89,124.21L785.33,122.3L785.48,121.7L787.54,115.71L787.58,117.17L788.25,127.37L788.54,126.31L788.68,125.82L790.45,121.34L790.49,122.12L790.58,122.75L792.91,117.69L793.06,117.37L793.36,116.77L793.4,118.49L793.94,125.22L794.23,124.03L794.37,123.48L796.29,118.3L796.31,119.18L796.33,119.76L797.44,131.76L797.58,131.49L799.19,129.43L799.23,130.7L799.62,134.77L800.06,132.28L800.21,131.54L802.12,124.76L802.16,126.45L802.39,132.23L802.98,130.92L803.12,130.62L805.04,127.43L805.08,128.61L806.62,141.98L806.77,142.91L807.06,144.64L807.5,142.86L807.64,142.26L807.95,141.11L808.08,142.32L808.23,143.52L808.37,144.27L808.81,142.75L808.96,142.28L810.86,137.76L810.9,139.07L811.29,143.47L811.73,142.08L811.87,141.61L814.64,135.53L814.79,135.25L816.7,132.33L816.73,132.93L816.83,134.12L817.71,142.93L818.14,141.79L818.29,141.44L819.62,138.77L819.66,139.92L819.75,141.94L821.35,161.77L821.5,162.45L822.66,168.85L822.81,171.11L825.3,197.07L825.41,197.07L826.16,202.32L826.31,202.36L828.36,203.1L828.4,203.87L829.81,214.33L829.96,214.67L830.83,216.57L831.24,215.84L831.25,214.99L831.28,214.72L831.57,218.05L831.71,218.23L831.85,218.29L832,217.34L834.2,206.98L834.23,207.44L834.33,208.33L834.77,211.43L835.06,209.94L835.21,209.24L837.11,202.55L837.15,203.96L837.83,218.65L838.27,215.98L838.42,215.17L840,208.59" style="vector-effect: none; fill: none; stroke: rgb(255, 127, 14); stroke-opacity: 1; stroke-width: 2px; opacity: 1;"/></g><g class="points"/><g class="text"/></g><g class="trace scatter trace2800f1" style="stroke-miterlimit: 2; opacity: 1;"><g class="fills"/><g class="errorbars"/><g class="lines"><path class="js-line" d="M0,285.06L0.02,285.34L0.29,277.41L0.44,275.85L1.17,272.38L1.46,273.64L1.6,274.23L2.48,280.19L2.63,281.32L2.93,283.42L3.06,279.77L3.21,276.33L3.35,274.06L3.79,277.92L3.94,279.09L5.84,290.78L5.88,289.45L5.98,286.86L6.71,274.44L7,276.27L7.15,277.21L8.76,285.55L8.8,284.19L8.9,281.55L9.63,276.46L9.77,276.72L9.92,277.7L11.68,287.26L11.72,286.38L11.81,284.68L12.4,275.95L12.83,279.12L12.98,280.09L14.59,288.58L14.63,287.14L14.73,284.33L15.17,274.43L15.6,277.2L15.75,278.15L17.51,288.14L17.55,286.68L17.65,283.86L18.38,273.31L18.67,275.33L18.81,276.28L20.43,285.89L20.56,282.4L20.71,279.09L21.15,271.75L21.58,274.64L21.73,275.66L23.34,284.68L23.42,282.66L23.48,281.35L24.5,271.81L24.65,272.54L26.26,281.71L26.55,279.63L26.69,279.24L27.27,277.76L27.42,278.33L27.56,279.3L29.18,288.14L29.22,287.26L29.31,285.56L30.19,273.74L30.63,275.43L30.77,275.96L32.09,286.98L32.23,283.34L32.38,280.46L33.25,273.77L33.4,274.42L33.54,276.18L35.02,290.45L35.15,286.81L35.29,283.14L36.17,269.04L36.46,270.9L36.61,272.98L37.93,291L38.06,287.13L38.21,283.49L38.65,274.11L39.23,276.7L39.38,277.46L40.84,287.86L40.88,286.67L40.98,284.37L41.56,275.06L42,277.24L42.15,277.96L43.34,287.3L43.46,288.38L43.77,291.67L43.9,288.15L44.04,285.22L44.92,272.74L45.21,274.22L45.36,275.29L46.68,292.38L46.81,288.63L46.96,285.11L47.83,273.5L48.13,275.72L48.27,277.66L49.59,291.33L49.73,288.27L49.88,285.37L50.61,278.83L50.75,279.61L50.9,280.58L52.51,295.06L52.65,291.31L52.79,287.8L53.67,273.18L53.96,274.04L54.11,276.61L55.43,296.16L55.56,292.42L55.71,288.92L56.88,272.37L57.02,273.79L57.17,276.37L58.34,293.77L58.49,289.52L58.63,286.02L59.65,269.18L59.94,270.53L60.08,273.23L61.26,290.4L61.41,286.75L61.54,283.74L62.27,270.17L62.71,272.45L62.86,275.15L64.19,294.83L64.38,290.48L64.46,288.92L65.33,274.56L65.63,276.01L65.77,278.92L67.09,298.96L67.23,295.24L67.38,291.76L68.4,281L68.54,281.75L68.69,283.68L70.02,297.41L70.15,294.61L70.29,291.77L71.46,274.21L71.61,276.43L71.75,279.11L72.93,296.14L73.06,292.73L73.21,289.5L74.52,269.2L74.67,271.42L74.81,273.76L75.84,287.43L76.13,282.22L76.27,281.18L77,278.29L77.15,280.32L77.29,282.34L78.76,298.04L78.9,295.28L79.04,292.67L80.21,277.07L80.65,278.52L80.79,280.8L81.68,292.42L81.81,289.51L81.96,286.77L82.69,275.95L83.13,278.02L83.27,279.38L84.6,299.4L84.73,296.01L84.88,292.82L86.34,275.85L86.48,275.34L86.63,274.87L86.77,275.68L86.92,276.99L87.52,281.82L87.65,279.91L87.79,277.96L88.52,269.42L88.96,271.69L89.11,272.45L90.43,290.27L90.56,287.71L90.71,285.28L91.44,274.86L91.88,276.42L92.02,278.16L93.35,298.4L93.49,295.09L93.63,292.18L94.5,276.86L94.79,278.05L94.94,281.04L96.27,304L96.41,297.98L96.54,294.78L97.56,277.78L97.86,280.76L98,283.58L99.19,301.51L99.38,296.46L99.46,294.65L100.34,277.97L100.77,279.55L100.92,280.83L102.1,296.96L102.23,293.93L102.38,291.07L103.54,274.83L103.84,276.14L103.98,278.54L105.02,292.59L105.29,287.17L105.44,284.6L106.17,274.3L106.61,276.48L106.75,277.27L107.34,283.94L107.48,285.89L107.93,291.17L108.07,288.13L108.21,285.26L109.23,269.81L109.67,271.08L109.82,271.93L110.86,286.76L110.98,283.78L111.13,280.76L111.86,276.4L112,277.32L112.15,279.56L113.76,297.98L113.9,294.98L114.04,292.15L115.07,282.39L115.21,283.51L115.36,285.44L116.69,303.37L116.82,300.14L116.96,296.89L118.13,277.42L118.57,279.3L118.71,279.99L119.44,286.78L119.45,288.59L119.6,290.31L119.73,287.24L119.88,284.34L120.75,270.4L121.04,272.47L121.19,275.43L122.52,296.07L122.65,292.62L122.79,289.16L123.52,277L123.96,278.63L124.11,279.12L124.69,282.49L124.84,284.65L125.43,292.31L125.57,289.06L125.71,286L126.59,272.48L127.02,273.25L127.17,273.5L128.19,275.98L128.2,277.71L128.36,279.48L128.63,274.45L128.77,272.06L129.21,267.53L129.65,269.53L129.79,270.16L130.09,273.25L130.23,275.65L131.27,295.54L131.29,289.05L131.3,282.99L131.31,294.55L131.98,278.96L132.13,278.35L132.57,276.76L132.71,278.21L132.86,280.53L134.19,301.34L134.38,296.21L134.46,294.37L135.48,276.76L135.63,279.66L135.77,282.65L137.1,303.36L137.23,299.69L137.38,296.23L138.69,273.63L138.98,274.75L139.13,277.14L140.02,289.49L140.29,284.03L140.44,281.43L141.61,265.77L141.9,266.43L142.04,268.11L142.93,278.43L143.36,276.57L143.49,276.25L143.79,275.64L143.94,277.58L145.86,300.71L145.98,297.91L146.13,295.07L147.15,279.04L147.59,280.2L147.73,280.65L148.76,283.31L148.8,282.46L148.9,280.81L149.77,269.07L150.21,270.07L150.36,270.48L150.8,273.72L150.94,275.91L151.69,285.54L151.96,280.01L152.11,277.38L152.84,268.36L152.98,271.48L153.13,274.59L154.6,298.09L154.73,294.68L154.88,291.48L156.19,279.1L156.34,279.33L157.52,295.26L157.65,292.05L157.8,288.82L158.82,273.27L159.11,274.69L159.25,275.34L160.43,291.91L160.71,286.51L160.86,284.03L161.59,274.99L161.88,276.91L162.02,277.78L163.19,286.64L163.2,288.43L163.36,290.25L163.49,287.25L163.63,284.6L164.07,277.02L164.65,278.85L164.8,280.33L166.26,303.91L166.41,300.08L166.55,296.94L168,273.72L168.3,274.05L168.38,275.15L169.19,284.46L169.46,280.36L169.61,278.38L170.77,266.21L171.07,267.38L171.21,267.93L171.5,270.37L171.65,272.21L172.1,277.28L172.38,272.44L172.52,270.22L173.11,263.34L173.55,265.29L173.69,265.9L174.13,270.28L174.27,272.46L175.02,282.11L175.3,276.96L175.44,274.51L176.17,265.31L176.46,269.42L176.61,272.19L177.93,291.59L178.07,288.49L178.21,285.56L179.82,264.84L179.96,266.25L180.11,268.2L180.86,276.8L181.13,272.27L181.28,270.44L181.86,264.47L182.15,268L182.3,270.78L183.77,295.61L183.9,289.52L184.05,286.84L184.92,273.65L185.21,275.55L185.36,278.21L186.69,296.99L186.82,294.21L186.96,291.39L187.84,277.82L188.28,279.36L188.42,279.83L189,287.86L189.15,289.98L189.6,295.73L189.73,292.16L189.88,288.81L190.9,272.31L191.19,273.42L191.34,276.01L192.52,292.98L192.65,290.35L192.8,287.69L193.96,270.95L194.4,271.89L194.55,272.19L195.43,282.48L195.71,278.29L195.86,276.35L197.03,264.65L197.17,266.56L197.32,268.76L198.36,281.75L198.49,279.25L198.63,277.04L199.21,268.8L199.65,270.79L199.8,271.56L201.26,277.39L201.35,275.81L201.37,275.51L203,256.98L203.3,257.26L203.38,257.37L203.73,258.47L203.88,260.28L204.03,260.28L204.04,262.02L204.19,263.8L204.46,259.18L204.61,256.97L204.9,254.79L205.34,257L205.48,259.49L207.1,280.74L207.23,278.53L207.38,276.44L208.69,262.44L208.98,263.5L209.13,263.99L210.02,266.52L210.15,264.8L210.3,263.07L211.04,255.78L211.46,256.91L211.61,257.3L212.48,261.78L212.63,263.49L212.78,263.49L212.79,265.13L212.93,266.7L213.21,262.4L213.36,260.41L215.55,241.69L215.69,241.69L215.9,242.46L216.42,239.89L216.57,239.77L218.77,254.59L218.81,271.61L219.63,248.41L219.78,247.54L220.65,243.11L220.94,244.16L221.09,245.03L221.69,248.19L221.96,245.96L222.11,244.89L224.44,252.74L224.45,253.52L224.6,254.26L224.64,272.26L225.46,247.72L225.61,246.81L228.23,235.73L228.38,235.31L231.36,229.28L231.44,229.2L242.38,219.71L242.53,219.56L253.46,209.62L253.61,209.62L268.05,196.04L268.19,196.04L276.8,187.6L276.94,187.6L282.78,181.91L282.79,182.67L282.93,183.69L283.21,181.31L283.36,181.16L286.71,177.82L286.86,178.74L288.77,211.73L288.82,209.77L288.9,207.87L290.36,179.54L290.65,180.66L290.8,182.84L291.69,193.97L291.82,191.09L291.97,188.17L292.84,175.15L293.28,176.57L293.42,178.14L294.6,193.11L294.75,190.17L294.88,187.72L295.47,178.48L295.76,180.38L295.9,183.51L297.53,208.21L297.66,204.09L297.8,200.46L299.4,178.02L299.55,177.43L299.99,179.93L300.13,181.17L300.43,183.46L300.86,181.22L301.01,180.83L301.74,179.09L302.03,180.11L302.17,180.93L303.36,186.59L303.5,184.01L303.63,181.71L304.36,171.35L304.8,173.81L304.94,175.33L306.28,194.45L306.41,190.27L306.55,186.6L307.42,176.63L307.57,177.77L307.66,178.76L309.19,192.35L309.32,189.61L309.39,188.29L310.63,177.12L310.78,176.75L311.22,175.74L311.41,177.04L311.49,177.64L312.1,181.89L312.24,179.03L312.38,176.31L313.11,165.51L313.55,167.51L313.69,170.3L315.03,189.22L315.15,185.31L315.3,181.37L317.34,146.7L317.49,146.56L335.44,128.18L335.48,127.5L335.57,128.03L336.15,127.41L336.3,127.26L344.19,119.29L344.23,118.19L344.32,119.14L344.9,118.53L345.05,118.38L347.11,116.36L347.15,115.15L347.24,116.22L347.93,115.51L347.97,115.47L349.13,114.31L349.42,114.75L349.57,115.02L350.03,115.76L350.07,115.13L350.15,114.02L351.17,112.29L351.32,112.15L354.82,108.99L354.97,109.33L355.11,109.65L355.86,111.05L355.9,110.42L355.99,109.31L356.86,106.76L357.01,106.62L357.6,106.05L357.74,106.93L357.88,108.06L358.77,113.55L358.9,111.53L359.05,109.62L359.49,104.87L359.92,106.13L360.07,106.51L361.68,109.7L361.72,109.07L361.82,107.85L363.13,100.8L363.28,100.66L364.6,109.7L364.74,107.66L364.88,105.74L365.32,100.7L365.9,102.39L366.05,102.9L367.52,117.05L367.65,113.27L367.8,109.71L369.11,95.19L369.26,95.06L369.99,96.75L370.13,97.44L370.57,97.22L371.45,99.95L371.59,100.36L372.03,104.57L372.18,106.27L373.35,116.99L373.5,112.96L373.63,109.64L374.65,90.87L374.95,93.54L375.09,94.75L376.27,106.08L376.56,103.42L376.7,102.34L377.57,96.85L377.86,98.34L378.01,99.16L379.19,109.13L379.22,107.85L379.32,105.36L380.49,87.35L380.63,90.18L380.78,92.85L382.1,111.38L382.24,107.9L382.38,104.61L382.77,100.48L383.11,102.99L383.26,104L385.03,113.41L385.07,112.18L385.15,110.01L386.32,90.21L386.47,92.07L386.61,93.83L387.95,106.59L388.07,103.78L388.22,100.92L388.36,98.2L388.8,101.25L388.95,102.3L390.85,112.66L390.89,111.43L390.99,109.03L391.72,96.88L392.01,98.21L392.15,99.1L393.81,107.16L393.82,104.57L393.9,103.91L394.49,96.9L394.78,98.43L394.93,99.38L396.69,108.28L396.72,107.17L396.82,105L397.84,87.06L398.13,88.87L398.28,91.1L399.6,108.16L399.74,104.09L399.88,100.29L400.32,96.6L400.76,98.91L400.91,99.83L402.52,108.55L402.56,107.43L402.66,105.25L403.24,98.52L403.53,100.55L403.68,101.51L405.45,110.85L405.48,109.51L405.57,107.21L406.36,96.9L406.6,97.97L406.74,98.83L408.35,108.08L408.43,106.07L408.49,104.77L409.36,92.48L409.66,94.33L409.8,95.2L411.27,104.07L411.42,101.41L411.55,100.89L414.04,116.11L414.15,116.11L414.19,116.71L414.61,106.07L414.76,102.89L415.05,98.77L415.49,100.47L415.63,101.25L417.11,107.53L417.15,106.43L417.24,104.53L417.68,96.57L418.11,99.83L418.26,100.82L420.03,110.11L420.07,108.89L420.16,106.74L421.03,95.13L421.18,96.11L421.32,97.05L422.94,105.36L422.98,104.23L423.07,102.02L423.22,100.5L423.51,102.87L423.66,103.97L425.85,115.88L425.89,114.62L426.86,94.19L427.3,96.75L427.45,97.54L428.77,103.4L428.82,102.29L428.91,100.42L429.34,92.32L429.78,95.02L429.93,95.9L431.69,104.87L431.73,103.55L431.82,101L432.11,94.77L432.55,97.65L432.7,98.69L434.6,109.04L434.64,107.79L434.74,105.36L434.89,102.2L435.32,105.12L435.47,106.23L437.52,117.49L437.53,117.45L437.56,116.22L438.53,94.02L438.97,95.61L439.11,96.35L440.44,101.87L440.48,100.81L440.57,98.75L441.01,90.27L441.45,92.89L441.59,93.72L443.35,101.41L443.43,99.66L443.49,99.12L443.78,97.59L444.07,99.11L444.22,99.83L446.27,108.08L446.31,106.83L446.36,105.6L446.56,101.08L446.99,103.83L447.14,104.9L449.19,115.85L449.23,114.52L450.34,91.53L450.64,93.09L450.78,93.83L452.1,99.26L452.14,98.21L452.24,96.17L452.68,88.28L453.11,90.79L453.26,91.64L455.03,99.59L455.07,98.56L455.16,96.76L455.45,92.68L455.91,96.13L456.03,96.92L457.94,106.67L457.98,105.43L458.07,103.01L458.22,99.62L458.8,103.26L458.95,104.28L460.85,114.18L460.89,112.86L460.99,110.31L462.01,95.74L462.16,96L462.3,96.74L463.77,102.53L463.81,101.16L463.91,98.51L464.49,88.08L464.93,89.84L465.07,90.65L466.69,97.67L466.73,96.65L466.82,94.66L467.11,91.51L467.55,94.79L467.7,95.79L469.6,105.63L469.64,104.4L469.74,102L469.89,98.73L470.32,101.53L470.47,102.61L472.52,113.61L472.56,112.3L472.66,109.75L473.53,94.35L473.82,95.46L473.97,96.23L475.44,102.25L475.48,101.51L475.57,100.08L475.87,96.72L476.36,98.22L476.45,98.59L478.35,104.58L478.39,103.18L478.78,93.14L479.37,95.61L479.51,96.28L481.28,105.4L481.32,104.17L481.36,102.89L481.56,98.48L481.99,101.32L482.14,102.41L484.2,113.47L484.24,112.16L485.34,87.83L485.64,88.83L485.78,89.59L487.11,95.24L487.24,94.06L487.39,92.85L487.68,90.94L488.12,92.94L488.26,93.56L490.03,99.37L490.07,98.82L490.16,97.86L490.45,96.25L490.89,97.72L490.92,97.84L492.94,106.07L492.98,104.62L493.07,101.81L493.37,98.08L493.8,101.5L493.95,102.54L495.86,112.51L495.9,111.2L495.99,108.89L497.01,93.08L497.3,94.48L497.45,95.2L498.77,100.98L498.81,99.44L498.91,96.45L499.34,91.79L499.78,93.12L499.93,93.68L501.7,98.95L501.74,97.8L501.82,95.78L502.41,90.68L502.7,92.67L502.84,93.61L504.61,102.24L504.65,101L504.74,98.82L504.89,95.87L505.32,98.6L505.47,99.66L507.53,110.33L507.57,109.02L507.66,106.7L508.68,84.54L509.12,86.23L509.26,86.89L510.44,91.21L510.48,89.85L510.57,87.21L511.02,82.79L511.36,84.49L511.45,84.99L515.39,102.22L515.53,102.72L516.28,104.91L516.32,103.24L516.36,101.94L516.55,98.59L517.14,99.64L517.28,99.88L518.01,101.95L518.16,102.71L519.2,107.18L519.24,105.87L519.32,103.57L519.91,90.38L520.49,92.37L520.64,92.84L522.11,97.02L522.14,96.1L522.24,94.93L522.39,93.27L522.82,95.11L522.93,95.72L525.03,103.89L525.07,102.23L525.6,88.83L526.04,91.02L526.18,91.62L528.66,99.3L528.8,99.61L530.87,104.73L530.9,103.42L530.99,101.13L531.43,93.63L531.87,96.16L532.01,96.91L533.78,103.46L533.82,101.8L534.35,87.98L534.78,89.86L534.93,90.45L536.7,96.09L536.74,94.92L536.82,92.86L537.55,84.89L537.85,85.63L537.99,85.98L539.57,91.14L539.58,91.81L539.64,91.61L542.22,103L542.37,103L542.53,103.9L542.8,96.15L542.95,93.11L545.44,98.8L545.48,98.22L546.01,93.74L546.45,95.39L546.6,95.9L548.37,100.78L548.4,99.51L548.43,98.76L548.64,94.51L549.08,97.35L549.22,98.23L551.27,106.96L551.3,105.76L551.31,105.46L552.14,89.92L552.43,91.03L552.58,91.91L554.2,99.41L554.24,98.14L554.33,95.9L554.47,93.19L555.05,95.27L555.2,95.79L557.11,101.56L557.14,100.45L557.24,99.34L557.39,97.76L557.93,99.61L557.97,99.77L560.03,106.23L560.07,104.57L560.89,89.02L561.18,91.05L561.33,92L562.94,100.02L562.98,98.72L563.08,96.18L563.95,88.32L564.1,88.98L564.24,89.64L565.87,97.78L565.99,96.49L566.14,95.18L566.58,91.61L567.01,93.12L567.16,93.8L568.78,100.02L568.82,99.27L568.91,97.96L569.49,91.12L569.93,92.79L570.08,93.3L571.7,97.82L571.74,96.83L571.83,95.85L571.97,94.29L572.41,96.44L572.55,97.09L574.62,105.78L574.65,104.29L574.74,101.68L575.18,93.2L575.62,96.13L575.76,97.01L577.53,104.9L577.57,103.41L577.66,100.8L578.39,87.11L578.68,88.76L578.83,89.54L580.44,96.21L580.48,95.66L580.58,94.57L580.72,93.53L581.16,95.33L581.31,95.88L583.37,103.39L583.41,101.92L583.43,101.05L583.78,96.78L584.22,98.66L584.37,99.24L586.28,107.69L586.3,105.77L586.31,104.59L586.32,106.03L586.85,93.04L586.99,93.32L589.2,96.73L589.24,95.57L589.76,90.06L590.06,91.7L590.2,92.46L592.11,99.87L592.15,98.42L592.24,95.6L592.53,92.63L592.97,94.62L593.12,95.23L595.03,101.27L595.07,100.01L595.6,90.65L596.04,93.72L596.18,94.63L597.94,103.48L597.98,102.17L598.08,99.62L598.37,94.82L598.81,97.26L598.95,98.09L600.87,105.82L600.91,104.16L601.58,88.22L602.01,89.92L602.16,90.44L603.77,95.02L603.81,93.89L603.91,92.94L606.7,102.42L606.74,101.79L607.12,97.27L607.56,98.85L607.7,99.58L609.61,107.22L609.65,105.57L609.89,100.8L610.47,101.83L610.62,102.14L614.85,109.22L614.99,109.43L622.43,120.39L622.58,120.61L629.72,131.83L629.87,131.83L630.6,133.24L630.74,133.48L643.29,153.9L643.43,154.14L650.44,165.93L650.48,165.29L650.58,164.16L658.89,178.61L659.04,178.61L659.77,180.21L659.91,180.47L665.03,189.68L665.07,188.34L665.16,185.97L665.89,172.11L666.33,172.74L666.47,172.95L670.56,178.73L670.7,178.73L670.99,177.55L671.58,181.61L671.72,182.52L673.78,192.27L673.81,191.01L673.91,188.55L674.64,176.04L675.08,176.81L675.22,177.06L676.7,179.62L676.74,179.04L676.83,178.13L677.27,175.04L677.7,176.81L677.85,177.36L679.61,182.78L679.65,181.55L679.74,179.16L680.04,174.82L680.62,175.86L680.77,176.13L682.81,181.24L682.95,182.03L685.44,195.81L685.48,194.58L685.58,192.18L686.16,182.61L686.6,183.35L686.75,183.59L688.37,187.23L688.41,185.9L688.44,185.15L688.64,183.06L689.22,184.1L689.37,184.36L691.28,187.54L691.29,184.17L691.31,189.64L691.57,183.99L692,184.57L692.14,184.79L694.2,187.92L694.24,186.85L694.33,186.13L694.47,185.38L694.77,187.34L694.91,188.58L697.11,202.29L697.15,201.05L697.25,198.65L698.41,182.89L698.56,183.09L698.7,183.29L700.04,185.04L700.07,184.52L700.16,183.6L700.45,180.8L700.92,182.57L701.04,182.98L702.94,189.8L702.98,188.69L703.08,186.8L703.37,184.15L703.81,185.12L703.95,185.48L705.86,191.95L705.9,191.02L706,189.2L706.29,186.71L706.58,188.67L706.72,189.8L708.79,201.91L708.82,200.79L708.91,198.81L710.08,184.19L710.22,184.63L710.37,185.16L711.69,191.43L711.73,190.02L711.83,187.29L712.41,179.64L712.7,181.72L712.85,182.72L714.61,192.02L714.65,190.84L714.75,188.53L715.33,182.82L715.62,184.96L715.77,185.97L717.53,195.63L717.57,194.62L717.66,192.66L718.54,185.97L718.68,186.67L718.83,187.36L720.44,193.51L720.48,192.57L720.58,190.74L721.16,185.88L721.45,187.37L721.6,188.07L723.36,194.92L723.44,193.31L723.5,192.26L724.08,183.41L724.52,186.6L724.66,187.57L726.29,197.51L726.36,193.91L726.38,193.44L727,182.3L727.43,185.02L727.58,185.98L729.19,194.64L729.23,193.64L729.33,191.68L729.77,184.99L730.22,187.38L730.35,188.18L732.11,196.85L732.15,195.78L732.25,193.7L732.83,185.28L733.12,187.17L733.27,188.06L735.04,196.68L735.08,195.81L735.16,194.28L735.6,187.7L736.05,190.09L736.18,191.05L737.94,200.69L737.98,199.5L738.08,197.18L739.25,178.15L739.54,180.07L739.68,181.59L740.86,194.2L741,189.98L741.14,186.81L741.43,185.25L741.73,187.43L741.87,188.45L743.78,198.75L743.82,197.71L743.91,195.68L744.64,186.56L744.93,187.47L745.08,188.33L746.69,197.43L746.73,196.17L746.83,193.74L747.56,188.22L747.7,189.31L747.85,190.36L749.61,200.36L749.65,199.26L749.75,197.11L751.06,177.3L751.2,177.79L751.35,179.25L752.53,192.86L752.66,189.39L752.81,186.57L753.98,183.66L754.12,185.11L755.45,196.42L755.58,193.75L755.73,191.03L756.75,182.4L756.89,183.5L757.04,185.37L758.36,198.4L758.51,194.61L758.64,191.49L759.08,186.6L759.37,188.74L759.52,189.75L761.29,199.38L761.36,197.57L761.38,197.18L762.14,185.64L762.43,187.57L762.58,188.49L764.19,196.88L764.33,194.71L764.4,193.73L765.79,177.76L765.93,179.66L766.08,182.2L767.11,196.43L767.25,192.41L767.39,190.09L768.56,185.2L768.71,185.39L768.85,186.88L770.04,196.74L770.16,193.96L770.31,191.13L771.33,176.14L771.62,179.43L771.77,180.99L772.94,191.29L773.08,188.41L773.23,185.68L774.1,182.32L774.25,182.27L776.43,202.87L776.58,204.17L779.06,218.88L779.21,219.45L781.98,227.62L782.12,227.96L787.38,237.98L787.49,237.98L788.25,239.43L788.39,239.66L800.94,260.97L801.08,261.21L805.04,267.63L805.08,266.76L805.16,265.23L805.6,258.58L806.19,259.47L806.33,259.69L810.86,267.06L810.9,266.2L811,264.54L811.29,260.4L811.87,262.4L812.02,263L813.79,268.81L813.83,267.99L813.91,266.57L814.06,265.57L814.64,266.66L814.79,266.93L819.02,273.05L819.16,273.29L822.53,280.78L822.57,279.35L822.66,276.57L823.25,269.74L823.54,270.53L823.69,270.92L825.45,276.39L825.48,275.14L825.58,274.48L828.21,280.99L828.22,281.46L828.36,281.93L828.4,280.27L828.44,278.97L829.23,268.49L829.52,269.65L829.67,270.3L831.28,276.19L831.32,275.09L831.37,274.3L831.85,272.59L832,273.62L832.14,274.6L834.2,285.23L834.23,283.9L834.33,281.33L835.06,272.86L835.23,273.86L835.35,274.72L837.11,284.24L837.15,282.72L837.25,279.78L837.98,274.21L838.12,274.67L838.27,275.26L840,282.76" style="vector-effect: none; fill: none; stroke: rgb(44, 160, 44); stroke-opacity: 1; stroke-width: 2px; opacity: 1;"/></g><g class="points"/><g class="text"/></g><g class="trace scatter tracecb6586" style="stroke-miterlimit: 2; opacity: 1;"><g class="fills"/><g class="errorbars"/><g class="lines"><path class="js-line" d="M0,245.75L176.03,245.75L176.17,242.72L177.9,242.72L177.92,238.89L178.94,238.89L179.09,236.58L180.23,236.58L180.25,232.86L180.82,232.86L180.84,229.17L184.78,229.17L184.92,226.29L186.65,226.29L186.67,222.74L187.69,222.74L187.84,213.1L190.61,213.1L190.75,210.18L192.49,210.18L192.5,207.08L194.11,207.08L194.25,204.58L195.4,204.58L195.42,201.55L196.44,201.55L196.59,199.25L199.94,199.25L200.09,196.63L201.24,196.63L201.25,193.66L202.86,193.66L203,187.43L204.61,187.43L204.75,184.62L205.21,184.62L205.34,178.53L205.78,178.53L205.92,175.3L209.28,175.3L209.42,172.05L211.61,172.05L211.75,165.2L212.9,165.2L212.92,161.5L222.11,161.5L222.26,158.9L224.57,158.9L224.59,155.95L225.61,155.95L225.76,152.58L280.44,152.58L280.59,150.05L281.04,150.05L281.17,147.54L283.94,147.54L284.09,143.99L286.86,143.99L287.01,141.31L287.44,141.31L287.59,132.35L292.69,132.35L292.84,128.87L293.28,128.87L293.42,126.23L293.86,126.23L294.01,123.28L294.57,123.28L294.59,117.31L295.03,117.31L295.17,114.48L295.61,114.48L295.76,111.63L296.78,111.63L296.92,108.67L297.49,108.67L297.51,105.57L298.53,105.57L298.67,102.22L300.4,102.22L300.42,99.4L302.03,99.4L302.17,92.8L303.32,92.8L303.34,89.66L303.78,89.66L303.92,86.86L306.69,86.86L306.84,84.32L309.75,84.32L309.76,78.22L310.21,78.22L310.34,75.29L312.07,75.29L312.09,72.29L312.53,72.29L312.67,65.73L314.99,65.73L315.01,62.56L595.45,62.56L595.6,65.81L602.45,65.81L602.6,69.15L603.03,69.15L603.18,75.93L606.66,75.93L606.68,78.97L607.12,78.97L607.26,81.84L610.62,81.84L610.76,87.7L611.78,87.7L611.93,90.25L612.49,90.25L612.49,90.25L612.51,93.35L615.41,93.35L615.43,96.63L616.45,96.63L616.6,100.49L617.04,100.49L617.18,103.56L617.62,103.56L617.76,106.4L622.87,106.4L623.01,109.23L624.16,109.23L624.18,115.76L625.22,115.76L625.35,119.07L627.54,119.07L627.68,124.97L628.7,124.97L628.85,128.26L631.62,128.26L631.76,131.6L632.2,131.6L632.35,134.88L633.5,134.88L633.51,137.81L635.83,137.81L635.85,139.84L636.87,139.84L637.01,142.4L637.45,142.4L637.6,145.92L642.12,145.92L642.26,148.63L645.04,148.63L645.18,151.26L647.5,151.26L647.51,153.54L771.05,153.54L771.18,157.32L772.21,157.32L772.35,160.33L772.92,160.33L772.93,163.22L774.54,163.22L774.68,166.2L775.25,166.2L775.27,169.68L777.46,169.68L777.6,171.78L785.04,171.78L785.18,174.98L787.5,174.98L787.52,178.23L788.54,178.23L788.68,181.61L789.71,181.61L789.85,183.85L790.42,183.85L790.43,186.62L792.62,186.62L792.77,190.09L793.79,190.09L793.94,192.53L795.54,192.53L795.69,196.55L798.57,196.55L798.6,199.22L800.23,199.22L800.35,202.98L800.79,202.98L800.94,206.16L801.42,206.16L801.52,209.66L802.08,209.66L802.1,213.56L802.54,213.56L802.69,219.41L807.92,219.41L807.94,223.13L808.51,223.13L808.52,226.33L809.54,226.33L809.69,229.34L812.46,229.34L812.6,232.04L813.75,232.04L813.77,235.19L818.87,235.19L819.02,240.72L820.04,240.72L820.19,243.05L822.5,243.05L822.52,245.75L840,245.75" style="vector-effect: none; fill: none; stroke: rgb(214, 39, 40); stroke-opacity: 1; stroke-width: 2px; opacity: 1;"/></g><g class="points"/><g class="text"/></g></g></g><g class="overplot"/><path class="xlines-above crisp" d="M0,0" style="fill: none;"/><path class="ylines-above crisp" d="M0,0" style="fill: none;"/><g class="overlines-above"/><g class="xaxislayer-above"><g class="xtick"><text text-anchor="middle" x="0" y="433" transform="translate(80,0)" style="font-family: 'Open Sans', verdana, arial, sans-serif; font-size: 12px; fill: rgb(42, 63, 95); fill-opacity: 1; white-space: pre; opacity: 1;">00:00</text></g><g class="xtick"><text text-anchor="middle" x="0" y="433" style="font-family: 'Open Sans', verdana, arial, sans-serif; font-size: 12px; fill: rgb(42, 63, 95); fill-opacity: 1; white-space: pre; opacity: 1;" transform="translate(185,0)">03:00</text></g><g class="xtick"><text text-anchor="middle" x="0" y="433" style="font-family: 'Open Sans', verdana, arial, sans-serif; font-size: 12px; fill: rgb(42, 63, 95); fill-opacity: 1; white-space: pre; opacity: 1;" transform="translate(290,0)">06:00</text></g><g class="xtick"><text text-anchor="middle" x="0" y="433" style="font-family: 'Open Sans', verdana, arial, sans-serif; font-size: 12px; fill: rgb(42, 63, 95); fill-opacity: 1; white-space: pre; opacity: 1;" transform="translate(395.01,0)">09:00</text></g><g class="xtick"><text text-anchor="middle" x="0" y="433" style="font-family: 'Open Sans', verdana, arial, sans-serif; font-size: 12px; fill: rgb(42, 63, 95); fill-opacity: 1; white-space: pre; opacity: 1;" transform="translate(500.01,0)">12:00</text></g><g class="xtick"><text text-anchor="middle" x="0" y="433" style="font-family: 'Open Sans', verdana, arial, sans-serif; font-size: 12px; fill: rgb(42, 63, 95); fill-opacity: 1; white-space: pre; opacity: 1;" transform="translate(605.01,0)">15:00</text></g><g class="xtick"><text text-anchor="middle" x="0" y="433" style="font-family: 'Open Sans', verdana, arial, sans-serif; font-size: 12px; fill: rgb(42, 63, 95); fill-opacity: 1; white-space: pre; opacity: 1;" transform="translate(710.01,0)">18:00</text></g><g class="xtick"><text text-anchor="middle" x="0" y="433" style="font-family: 'Open Sans', verdana, arial, sans-serif; font-size: 12px; fill: rgb(42, 63, 95); fill-opacity: 1; white-space: pre; opacity: 1;" transform="translate(815.02,0)">21:00</text></g><g class="xtick"><text text-anchor="middle" x="0" y="433" style="font-family: 'Open Sans', verdana, arial, sans-serif; font-size: 12px; fill: rgb(42, 63, 95); fill-opacity: 1; white-space: pre; opacity: 1;" transform="translate(920.02,0)">00:00</text></g></g><g class="yaxislayer-above"><g class="ytick"><text text-anchor="end" x="79" y="4.199999999999999" transform="translate(0,389.96)" style="font-family: 'Open Sans', verdana, arial, sans-serif; font-size: 12px; fill: rgb(42, 63, 95); fill-opacity: 1; white-space: pre; opacity: 1;">70</text></g><g class="ytick"><text text-anchor="end" x="79" y="4.199999999999999" style="font-family: 'Open Sans', verdana, arial, sans-serif; font-size: 12px; fill: rgb(42, 63, 95); fill-opacity: 1; white-space: pre; opacity: 1;" transform="translate(0,314.18)">75</text></g><g class="ytick"><text text-anchor="end" x="79" y="4.199999999999999" style="font-family: 'Open Sans', verdana, arial, sans-serif; font-size: 12px; fill: rgb(42, 63, 95); fill-opacity: 1; white-space: pre; opacity: 1;" transform="translate(0,238.41)">80</text></g><g class="ytick"><text text-anchor="end" x="79" y="4.199999999999999" style="font-family: 'Open Sans', verdana, arial, sans-serif; font-size: 12px; fill: rgb(42, 63, 95); fill-opacity: 1; white-space: pre; opacity: 1;" transform="translate(0,162.64)">85</text></g></g><g class="overaxes-above"/></g></g><g class="polarlayer"/><g class="smithlayer"/><g class="ternarylayer"/><g class="geolayer"/><g class="funnelarealayer"/><g class="pielayer"/><g class="iciclelayer"/><g class="treemaplayer"/><g class="sunburstlayer"/><g class="glimages"/><defs id="topdefs-829360"><g class="clips"/><clipPath id="legend829360"><rect width="220" height="86" x="0" y="0"/></clipPath></defs><g class="layer-above"><g class="imagelayer"/><g class="shapelayer"/></g><g class="infolayer"><g class="legend" pointer-events="all" transform="translate(80,100)"><rect class="bg" shape-rendering="crispEdges" style="stroke: rgb(68, 68, 68); stroke-opacity: 1; fill: rgb(255, 255, 255); fill-opacity: 1; stroke-width: 0px;" width="220" height="86" x="0" y="0"/><g class="scrollbox" transform="" clip-path="url(#legend829360)"><g class="groups"><g class="traces" transform="translate(0,14.5)" style="opacity: 1;"><text class="legendtext" text-anchor="start" x="40" y="4.680000000000001" style="font-family: 'Open Sans', verdana, arial, sans-serif; font-size: 12px; fill: rgb(42, 63, 95); fill-opacity: 1; white-space: pre;">Mean House Air Temperature</text><g class="layers" style="opacity: 1;"><g class="legendfill"/><g class="legendlines"><path class="js-line" d="M5,0h30" style="fill: none; stroke: rgb(31, 119, 180); stroke-opacity: 1; stroke-width: 2px;"/></g><g class="legendsymbols"><g class="legendpoints"/></g></g><rect class="legendtoggle" x="0" y="-9.5" width="214.234375" height="19" style="fill: rgb(0, 0, 0); fill-opacity: 0;"/></g><g class="traces" transform="translate(0,33.5)" style="opacity: 1;"><text class="legendtext" text-anchor="start" x="40" y="4.680000000000001" style="font-family: 'Open Sans', verdana, arial, sans-serif; font-size: 12px; fill: rgb(42, 63, 95); fill-opacity: 1; white-space: pre;">Max House Air Temperature</text><g class="layers" style="opacity: 1;"><g class="legendfill"/><g class="legendlines"><path class="js-line" d="M5,0h30" style="fill: none; stroke: rgb(255, 127, 14); stroke-opacity: 1; stroke-width: 2px;"/></g><g class="legendsymbols"><g class="legendpoints"/></g></g><rect class="legendtoggle" x="0" y="-9.5" width="214.234375" height="19" style="fill: rgb(0, 0, 0); fill-opacity: 0;"/></g><g class="traces" transform="translate(0,52.5)" style="opacity: 1;"><text class="legendtext" text-anchor="start" x="40" y="4.680000000000001" style="font-family: 'Open Sans', verdana, arial, sans-serif; font-size: 12px; fill: rgb(42, 63, 95); fill-opacity: 1; white-space: pre;">Min House Air Temperature</text><g class="layers" style="opacity: 1;"><g class="legendfill"/><g class="legendlines"><path class="js-line" d="M5,0h30" style="fill: none; stroke: rgb(44, 160, 44); stroke-opacity: 1; stroke-width: 2px;"/></g><g class="legendsymbols"><g class="legendpoints"/></g></g><rect class="legendtoggle" x="0" y="-9.5" width="214.234375" height="19" style="fill: rgb(0, 0, 0); fill-opacity: 0;"/></g><g class="traces" transform="translate(0,71.5)" style="opacity: 1;"><text class="legendtext" text-anchor="start" x="40" y="4.680000000000001" style="font-family: 'Open Sans', verdana, arial, sans-serif; font-size: 12px; fill: rgb(42, 63, 95); fill-opacity: 1; white-space: pre;">Mean House Set Point</text><g class="layers" style="opacity: 1;"><g class="legendfill"/><g class="legendlines"><path class="js-line" d="M5,0h30" style="fill: none; stroke: rgb(214, 39, 40); stroke-opacity: 1; stroke-width: 2px;"/></g><g class="legendsymbols"><g class="legendpoints"/></g></g><rect class="legendtoggle" x="0" y="-9.5" width="214.234375" height="19" style="fill: rgb(0, 0, 0); fill-opacity: 0;"/></g></g></g><rect class="scrollbar" rx="20" ry="3" width="0" height="0" style="fill: rgb(128, 139, 164); fill-opacity: 1;" x="0" y="0"/></g><g class="g-gtitle"/><g class="g-xtitle"><text class="xtitle" x="500" y="460.3" text-anchor="middle" style="font-family: 'Open Sans', verdana, arial, sans-serif; font-size: 14px; fill: rgb(42, 63, 95); opacity: 1; font-weight: normal; white-space: pre;">Time</text></g><g class="g-ytitle"><text class="ytitle" transform="rotate(-90,39.41875,260)" x="39.41875" y="260" text-anchor="middle" style="font-family: 'Open Sans', verdana, arial, sans-serif; font-size: 14px; fill: rgb(42, 63, 95); opacity: 1; font-weight: normal; white-space: pre;">Temperature</text></g></g></svg>