<svg class="main-svg" xmlns="http://www.w3.org/2000/svg" xmlns:xlink="http://www.w3.org/1999/xlink" width="700" height="500" style="" viewBox="0 0 700 500"><rect x="0" y="0" width="700" height="500" style="fill: rgb(255, 255, 255); fill-opacity: 1;"/><defs id="defs-00d0ff"><g class="clips"><clipPath id="clip00d0ffxyplot" class="plotclip"><rect width="518" height="360"/></clipPath><clipPath class="axesclip" id="clip00d0ffx"><rect x="80" y="0" width="518" height="500"/></clipPath><clipPath class="axesclip" id="clip00d0ffy"><rect x="0" y="60" width="700" height="360"/></clipPath><clipPath class="axesclip" id="clip00d0ffxy"><rect x="80" y="60" width="518" height="360"/></clipPath></g><g class="gradients"/><g class="patterns"/></defs><g class="bglayer"><rect class="bg" x="80" y="60" width="518" height="360" style="fill: rgb(229, 236, 246); fill-opacity: 1; stroke-width: 0;"/></g><g class="layer-below"><g class="imagelayer"/><g class="shapelayer"/></g><g class="cartesianlayer"><g class="subplot xy"><g class="layer-subplot"><g class="shapelayer"/><g class="imagelayer"/></g><g class="minor-gridlayer"><g class="x"/><g class="y"/></g><g class="gridlayer"><g class="x"><path class="xgrid crisp" transform="translate(170.56,0)" d="M0,60v360" style="stroke: rgb(255, 255, 255); stroke-opacity: 1; stroke-width: 1px;"/><path class="xgrid crisp" transform="translate(261.12,0)" d="M0,60v360" style="stroke: rgb(255, 255, 255); stroke-opacity: 1; stroke-width: 1px;"/><path class="xgrid crisp" transform="translate(351.68,0)" d="M0,60v360" style="stroke: rgb(255, 255, 255); stroke-opacity: 1; stroke-width: 1px;"/><path class="xgrid crisp" transform="translate(442.24,0)" d="M0,60v360" style="stroke: rgb(255, 255, 255); stroke-opacity: 1; stroke-width: 1px;"/><path class="xgrid crisp" transform="translate(532.8,0)" d="M0,60v360" style="stroke: rgb(255, 255, 255); stroke-opacity: 1; stroke-width: 1px;"/></g><g class="y"><path class="ygrid crisp" transform="translate(0,390.67)" d="M80,0h518" style="stroke: rgb(255, 255, 255); stroke-opacity: 1; stroke-width: 1px;"/><path class="ygrid crisp" transform="translate(0,350.98)" d="M80,0h518" style="stroke: rgb(255, 255, 255); stroke-opacity: 1; stroke-width: 1px;"/><path class="ygrid crisp" transform="translate(0,311.28)" d="M80,0h518" style="stroke: rgb(255, 255, 255); stroke-opacity: 1; stroke-width: 1px;"/><path class="ygrid crisp" transform="translate(0,271.59000000000003)" d="M80,0h518" style="stroke: rgb(255, 255, 255); stroke-opacity: 1; stroke-width: 1px;"/><path class="ygrid crisp" transform="translate(0,231.89)" d="M80,0h518" style="stroke: rgb(255, 255, 255); stroke-opacity: 1; stroke-width: 1px;"/><path class="ygrid crisp" transform="translate(0,192.2)" d="M80,0h518" style="stroke: rgb(255, 255, 255); stroke-opacity: 1; stroke-width: 1px;"/><path class="ygrid crisp" transform="translate(0,152.51)" d="M80,0h518" style="stroke: rgb(255, 255, 255); stroke-opacity: 1; stroke-width: 1px;"/><path class="ygrid crisp" transform="translate(0,112.81)" d="M80,0h518" style="stroke: rgb(255, 255, 255); stroke-opacity: 1; stroke-width: 1px;"/><path class="ygrid crisp" transform="translate(0,73.12)" d="M80,0h518" style="stroke: rgb(255, 255, 255); stroke-opacity: 1; stroke-width: 1px;"/></g></g><g class="zerolinelayer"><path class="xzl zl crisp" transform="translate(80,0)" d="M0,60v360" style="stroke: rgb(255, 255, 255); stroke-opacity: 1; stroke-width: 2px;"/></g><path class="xlines-below"/><path class="ylines-below"/><g class="overlines-below"/><g class="xaxislayer-below"/><g class="yaxislayer-below"/><g class="overaxes-below"/><g class="plot" transform="translate(80,60)" clip-path="url(#clip00d0ffxyplot)"><g class="scatterlayer mlayer"><g class="trace scatter trace91f10c" style="stroke-miterlimit: 2; opacity: 1;"><g class="fills"/><g class="errorbars"/><g class="lines"><path class="js-line" d="M0,292.71L1.81,294.78L3.62,293.05L5.43,294.39L7.24,293.66L9.06,293.64L10.87,297.71L12.68,295.56L14.49,295.36L18.11,299.46L19.92,299.88L21.73,300.31L23.55,298.15L25.36,299.04L27.17,298.74L28.98,299.76L30.79,299.49L32.6,302.38L34.41,302.69L36.22,299.75L38.03,300.58L39.85,303.28L41.66,303.49L47.09,302.75L48.9,301.04L50.71,303.69L52.52,302L54.34,303.97L56.15,301.6L57.96,302.27L59.77,304.77L65.2,301.69L67.01,304.15L68.83,301.69L70.64,304.14L72.45,301.67L74.26,303.51L77.88,302.25L79.69,302.86L81.5,301.63L83.31,302.23L85.13,304.07L86.94,304.68L88.75,302.81L90.56,302.8L92.37,302.77L94.18,303.96L99.62,302.3L101.43,303.95L103.24,300.61L105.05,302.8L108.67,299.65L110.48,302.27L114.1,299.96L115.92,301.35L117.73,300.95L119.54,298.9L121.35,295.37L123.16,297.01L124.97,297.76L126.78,294.23L130.41,293L132.22,293.16L134.03,293.56L135.84,290.66L137.65,291.15L139.46,290.1L141.27,287.29L143.08,287.01L144.9,284.67L146.71,285.22L148.52,280.82L150.33,284.07L153.95,276.61L155.76,277.12L157.57,277.52L159.38,269.78L161.2,270.22L163.01,274.94L168.44,262.91L170.25,265.81L172.06,256.52L173.87,258.19L179.31,249.54L181.12,244.81L182.93,252.12L184.74,235.44L186.55,242.39L188.36,236.75L190.17,245.84L191.99,235.76L193.8,238.82L195.61,239.02L197.42,244.57L199.23,222.27L201.04,227.23L202.85,228.42L204.66,228.02L206.48,219.05L208.29,222.11L210.1,221.12L211.91,227.39L213.72,221.67L215.53,217.19L217.34,219.09L219.15,194.68L220.97,210.91L222.78,201.39L224.59,200.87L226.4,196.82L228.21,198.93L230.02,188.13L231.83,202.1L233.64,198.17L235.45,204.96L239.08,172.17L240.89,197.46L242.7,187.57L244.51,190.35L246.32,180.39L248.13,191.7L249.94,176.58L251.76,180.91L253.57,181.66L255.38,167.96L257.19,177.81L259,169.55L260.81,177.57L262.62,171.26L264.43,163.24L266.24,184.87L268.06,154.11L269.87,177.17L271.68,165.94L273.49,178.17L275.3,160.11L277.11,171.22L278.92,178.21L280.73,161.45L282.55,167.05L284.36,166.58L286.17,162.69L287.98,169.35L291.6,160.9L293.41,160.7L295.22,173.52L297.03,153.64L298.85,168.12L300.66,157.64L302.47,149.86L304.28,161.69L306.09,137.56L307.9,167.37L309.71,142.24L311.52,163.4L313.34,146.29L315.15,148.47L318.77,156.89L320.58,155.5L322.39,152.36L324.2,146.29L326.01,156.89L327.83,148.4L329.64,157.56L331.45,145.66L333.26,144.11L335.07,174.04L336.88,146.01L338.69,173.48L340.5,133.87L342.31,158.32L344.13,157.05L345.94,168L347.75,151.09L349.56,157.84L351.37,138.75L353.18,151.25L354.99,149.07L356.8,151.97L358.62,143.99L360.43,155.94L362.24,139.03L364.05,149.51L365.86,141.05L367.67,148.04L369.48,137L371.29,118.03L373.1,122.95L374.92,125.45L376.73,119.18L378.54,141.25L380.35,132.76L382.16,140.62L383.97,142.36L385.78,139.86L389.41,152.01L391.22,154.15L393.03,175.19L394.84,158.72L396.65,168.24L398.46,168.6L400.27,182.1L402.08,175.55L403.9,165.82L405.71,180.07L407.52,184.08L409.33,180.19L411.14,191.27L412.95,197.02L414.76,190.47L416.57,209.56L418.38,186.9L420.2,198.33L422.01,212.14L423.82,202.06L427.44,218.57L429.25,212.98L431.06,222.7L432.87,225.36L434.69,224.25L436.5,231.04L438.31,231.63L440.12,224.17L441.93,234.77L443.74,233.78L445.55,232.23L447.36,232.63L449.17,234.45L450.99,238.66L452.8,232.98L454.61,240.37L456.42,236.99L458.23,239.69L460.04,238.86L461.85,242.99L463.66,245.09L465.48,240.17L469.1,247.31L470.91,248.19L474.53,252.12L476.34,257.63L478.15,252.2L479.97,255.13L481.78,262.36L483.59,266.33L485.4,264.46L487.21,271.05L490.83,273.55L492.64,276.69L496.27,278.95L498.08,278.59L499.89,279.98L501.7,279.86L503.51,280.62L505.32,285.02L507.13,284.59L508.94,286.57L510.76,288.48L512.57,287.21L514.38,288.08L516.19,290.26L518,290.9" style="vector-effect: none; fill: none; stroke: rgb(99, 110, 250); stroke-opacity: 1; stroke-width: 2px; opacity: 1;"/></g><g class="points"/><g class="text"/></g><g class="trace scatter trace6d5a90" style="stroke-miterlimit: 2; opacity: 1;"><g class="fills"/><g class="errorbars"/><g class="lines"><path class="js-line" d="M0,331.96L1.81,330.83L3.62,333.05L5.43,333.59L7.24,331.74L9.06,335.34L10.87,334.67L12.68,333.41L14.49,336.76L16.3,335.33L18.11,336.22L19.92,337.74L21.73,336.98L23.55,335.68L25.36,338.15L28.98,338.21L30.79,339.65L32.6,337.15L34.41,338.53L36.22,337.64L38.03,337.82L39.85,340.15L41.66,338.71L43.47,339.43L45.28,341.24L48.9,341.47L50.71,339.46L52.52,340.68L54.34,339.17L56.15,341.4L57.96,341.98L59.77,340.41L61.58,340.94L63.39,342L65.2,339.83L67.01,339.29L68.83,340.36L70.64,340.88L72.45,340.34L74.26,341.94L76.07,341.93L77.88,340.32L79.69,339.78L81.5,341.91L83.31,339.23L85.13,340.29L86.94,339.76L88.75,341.88L90.56,340.81L92.37,339.17L94.18,340.74L97.8,341.08L99.62,339.84L101.43,339.1L103.24,341.08L105.05,339.72L106.86,339.39L108.67,340.19L110.48,339.26L112.29,337.42L114.1,339.34L115.92,336.2L117.73,335.84L124.97,334.13L126.78,334.62L132.22,333.3L134.03,330.36L135.84,331.54L137.65,330.79L139.46,330.68L141.27,328.42L143.08,325.52L144.9,324.66L146.71,326.65L148.52,323.7L150.33,324.73L152.14,323.02L153.95,321.16L155.76,321.34L159.38,317.35L161.2,317.95L163.01,319.27L164.82,315.34L166.63,316.94L168.44,314.79L170.25,313.32L172.06,314.11L175.69,310.06L177.5,310.47L179.31,308.23L181.12,309.21L182.93,311.59L184.74,308.91L186.55,306.35L188.36,310.28L191.99,310.32L193.8,306.34L195.61,305.13L197.42,306.7L199.23,303.51L201.04,305.51L204.66,303.42L206.48,305.88L208.29,303.83L210.1,303.53L211.91,303.07L213.72,301.65L215.53,301.34L217.34,299.44L219.15,294.91L220.97,301.09L222.78,291.24L224.59,299.95L226.4,289.67L228.21,291.2L230.02,291.74L231.83,281.93L233.64,284.31L235.45,278.67L237.27,274.54L239.08,279.82L242.7,269.18L244.51,279.39L246.32,262.4L248.13,262.79L249.94,258.51L251.76,261.64L253.57,257.59L255.38,250.33L257.19,271.61L259,243.38L260.81,254.42L262.62,247.04L264.43,250.57L266.24,250.73L268.06,246.2L269.87,249.7L271.68,252.91L273.49,248.62L275.3,246.24L277.11,235.6L278.92,238.34L280.73,253.07L282.55,229.41L284.36,240.96L291.6,231.24L293.41,247.47L295.22,225.36L297.03,231.95L298.85,229.45L300.66,213.34L302.47,231.87L304.28,228.62L306.09,209.68L307.9,230.01L309.71,211.27L311.52,236.28L313.34,209.8L315.15,212.1L316.96,221.23L318.77,225.52L320.58,224.89L322.39,229.25L324.2,228.97L326.01,205.59L327.83,227.94L329.64,227.66L331.45,225.08L333.26,213.77L335.07,229.61L336.88,224.81L338.69,221.55L340.5,235.48L342.31,237.99L344.13,218.54L345.94,236.64L347.75,230.6L349.56,233.42L351.37,241.84L353.18,237.95L354.99,245.01L358.62,256.76L360.43,240.17L362.24,249.93L364.05,246.16L365.86,258.15L367.67,248.98L369.48,239.49L371.29,259.54L373.1,252.63L374.92,261.09L376.73,269.38L378.54,258.94L380.35,254.1L382.16,263.23L383.97,259.06L385.78,273.95L387.59,263.79L389.41,280.46L391.22,271.17L393.03,281.81L394.84,280.34L396.65,282.32L398.46,277.92L400.27,282.6L402.08,285.34L403.9,278.31L405.71,289.79L407.52,282.96L409.33,291.75L411.14,288.2L412.95,283.4L414.76,283.4L418.38,291.21L420.2,286.73L423.82,294.38L425.63,290.42L427.44,293.27L429.25,289.27L432.87,290.58L434.69,291.01L436.5,291.49L438.31,290.1L440.12,287.6L441.93,289.27L443.74,285.7L445.55,289.98L447.36,285.58L449.17,286.33L452.8,292.4L454.61,290.62L456.42,289.91L458.23,291.4L460.04,290.86L461.85,295.04L465.48,293.21L467.29,294.98L469.1,295.3L470.91,297.07L472.72,302.39L474.53,303.81L476.34,300.98L478.15,306.29L479.97,307.3L481.78,307.38L485.4,311.19L487.21,312.72L490.83,313.66L492.64,316.06L494.45,316.29L496.27,320.32L498.08,317.78L499.89,321.24L501.7,323.26L503.51,321.76L505.32,324.86L507.13,324.5L508.94,327.58L510.76,328.52L512.57,328.1L514.38,326.85L518,328.04" style="vector-effect: none; fill: none; stroke: rgb(239, 85, 59); stroke-opacity: 1; stroke-width: 2px; opacity: 1;"/></g><g class="points"/><g class="text"/></g><g class="trace scatter trace2baf5d" style="stroke-miterlimit: 2; opacity: 1;"><g class="fills"/><g class="errorbars"/><g class="lines"><path class="js-line" d="M0,193.53L1.81,191.94L3.62,195.04L5.43,195.79L7.24,193.21L9.06,198.21L10.87,197.3L12.68,195.55L14.49,200.2L16.3,198.21L18.11,199.44L19.92,201.55L21.73,200.51L23.55,198.69L25.36,202.14L27.17,201.78L28.98,202.22L30.79,204.21L32.6,200.75L34.41,202.66L36.22,201.43L38.03,201.67L39.85,204.92L41.66,202.9L43.47,203.89L45.28,206.43L47.09,206.55L48.9,206.75L50.71,203.97L52.52,205.63L54.34,203.57L56.15,206.63L57.96,207.46L59.77,205.28L61.58,205.99L63.39,207.46L65.2,204.44L67.01,203.73L68.83,205.2L70.64,205.91L72.45,205.16L74.26,207.38L76.07,207.38L77.88,205.16L79.69,204.4L81.5,207.34L83.31,203.61L85.13,205.12L86.94,204.36L88.75,207.3L90.56,205.83L92.37,203.53L94.18,205.71L97.8,206.19L99.62,204.48L101.43,203.45L103.24,206.19L105.05,204.32L106.86,203.85L108.67,204.96L110.48,203.69L112.29,201.11L114.1,203.77L115.92,199.4L117.73,198.93L121.35,197.3L123.16,197.3L124.97,196.54L126.78,197.22L130.41,196.66L132.22,195.39L134.03,191.3L135.84,192.93L137.65,191.9L139.46,191.74L143.08,184.6L144.9,183.41L146.71,186.14L148.52,182.06L150.33,183.49L152.14,181.1L153.95,178.52L155.76,178.76L159.38,173.24L161.2,174.08L163.01,175.9L164.82,170.47L166.63,172.65L168.44,169.67L170.25,167.65L172.06,168.72L175.69,163.12L177.5,163.68L179.31,160.58L181.12,161.93L182.93,165.27L184.74,161.53L186.55,157.96L188.36,163.44L191.99,163.48L193.8,157.96L195.61,156.25L197.42,158.44L199.23,154.03L201.04,156.81L204.66,153.87L206.48,157.33L208.29,154.47L210.1,154.03L211.91,153.4L213.72,151.45L215.53,151.02L217.34,148.36L219.15,142.08L220.97,150.66L222.78,136.96L224.59,149.07L226.4,134.78L228.21,136.92L230.02,137.68L231.83,124.02L233.64,127.36L235.45,119.5L237.27,113.74L239.08,121.13L242.7,106.32L244.51,120.53L246.32,96.91L248.13,97.43L249.94,91.51L251.76,95.88L253.57,90.28L255.38,80.12L257.19,109.69L259,70.48L260.81,85.88L262.62,75.6L264.43,80.48L266.24,80.68L268.06,74.41L269.87,79.29L271.68,83.73L273.49,77.78L275.3,74.48L277.11,59.72L278.92,63.49L280.73,83.97L282.55,51.1L284.36,67.14L291.6,53.65L293.41,76.19L295.22,45.47L297.03,54.64L298.85,51.14L300.66,28.76L302.47,54.48L304.28,49.99L306.09,23.72L307.9,51.94L309.71,25.9L311.52,60.63L313.34,23.87L315.15,27.09L316.96,39.71L318.77,45.67L320.58,44.79L322.39,50.87L324.2,50.47L326.01,18L327.83,49.04L329.64,48.68L331.45,45.07L333.26,29.39L335.07,51.38L336.88,44.71L338.69,40.19L340.5,59.56L342.31,63.01L344.13,36.02L345.94,61.11L347.75,52.77L349.56,56.7L351.37,68.37L353.18,62.97L354.99,72.78L358.62,89.13L360.43,66.03L362.24,79.61L364.05,74.37L365.86,91L367.67,78.26L369.48,65.12L371.29,92.94L373.1,83.38L374.92,95.09L376.73,106.64L378.54,92.11L380.35,85.4L382.16,98.06L383.97,92.31L385.78,112.95L387.59,98.86L389.41,121.96L391.22,109.1L393.03,123.9L394.84,121.84L396.65,124.62L398.46,118.47L400.27,124.98L402.08,128.79L403.9,119.02L405.71,134.94L407.52,125.49L409.33,137.68L411.14,132.72L412.95,126.09L414.76,126.09L418.38,136.92L420.2,130.69L423.82,141.33L425.63,135.85L427.44,139.78L429.25,134.26L432.87,136.09L434.69,136.65L436.5,137.32L438.31,135.42L440.12,131.96L441.93,134.22L443.74,129.26L445.55,135.26L447.36,129.14L449.17,130.18L452.8,138.59L454.61,136.13L456.42,135.1L458.23,137.2L460.04,136.45L461.85,142.24L465.48,139.7L467.29,142.16L469.1,142.6L470.91,145.06L472.72,152.48L474.53,154.43L476.34,150.5L478.15,157.88L479.97,159.27L481.78,159.39L485.4,164.71L487.21,166.81L490.83,168.12L492.64,171.46L494.45,171.78L496.27,177.37L498.08,173.84L499.89,178.64L501.7,181.46L503.51,179.36L505.32,183.68L507.13,183.17L508.94,187.45L510.76,188.76L512.57,188.17L514.38,186.42L518,188.09" style="vector-effect: none; fill: none; stroke: rgb(0, 204, 150); stroke-opacity: 1; stroke-width: 2px; opacity: 1;"/></g><g class="points"/><g class="text"/></g></g></g><g class="overplot"/><path class="xlines-above crisp" d="M0,0" style="fill: none;"/><path class="ylines-above crisp" d="M0,0" style="fill: none;"/><g class="overlines-above"/><g class="xaxislayer-above"><g class="xtick"><text text-anchor="middle" x="0" y="433" transform="translate(80,0)" style="font-family: 'Open Sans', verdana, arial, sans-serif; font-size: 12px; fill: rgb(42, 63, 95); fill-opacity: 1; white-space: pre; opacity: 1;">0</text></g><g class="xtick"><text text-anchor="middle" x="0" y="433" style="font-family: 'Open Sans', verdana, arial, sans-serif; font-size: 12px; fill: rgb(42, 63, 95); fill-opacity: 1; white-space: pre; opacity: 1;" transform="translate(170.56,0)">50</text></g><g class="xtick"><text text-anchor="middle" x="0" y="433" style="font-family: 'Open Sans', verdana, arial, sans-serif; font-size: 12px; fill: rgb(42, 63, 95); fill-opacity: 1; white-space: pre; opacity: 1;" transform="translate(261.12,0)">100</text></g><g class="xtick"><text text-anchor="middle" x="0" y="433" style="font-family: 'Open Sans', verdana, arial, sans-serif; font-size: 12px; fill: rgb(42, 63, 95); fill-opacity: 1; white-space: pre; opacity: 1;" transform="translate(351.68,0)">150</text></g><g class="xtick"><text text-anchor="middle" x="0" y="433" style="font-family: 'Open Sans', verdana, arial, sans-serif; font-size: 12px; fill: rgb(42, 63, 95); fill-opacity: 1; white-space: pre; opacity: 1;" transform="translate(442.24,0)">200</text></g><g class="xtick"><text text-anchor="middle" x="0" y="433" style="font-family: 'Open Sans', verdana, arial, sans-serif; font-size: 12px; fill: rgb(42, 63, 95); fill-opacity: 1; white-space: pre; opacity: 1;" transform="translate(532.8,0)">250</text></g></g><g class="yaxislayer-above"><g class="ytick"><text text-anchor="end" x="79" y="4.199999999999999" transform="translate(0,390.67)" style="font-family: 'Open Sans', verdana, arial, sans-serif; font-size: 12px; fill: rgb(42, 63, 95); fill-opacity: 1; white-space: pre; opacity: 1;">90</text></g><g class="ytick"><text text-anchor="end" x="79" y="4.199999999999999" style="font-family: 'Open Sans', verdana, arial, sans-serif; font-size: 12px; fill: rgb(42, 63, 95); fill-opacity: 1; white-space: pre; opacity: 1;" transform="translate(0,350.98)">100</text></g><g class="ytick"><text text-anchor="end" x="79" y="4.199999999999999" style="font-family: 'Open Sans', verdana, arial, sans-serif; font-size: 12px; fill: rgb(42, 63, 95); fill-opacity: 1; white-space: pre; opacity: 1;" transform="translate(0,311.28)">110</text></g><g class="ytick"><text text-anchor="end" x="79" y="4.199999999999999" style="font-family: 'Open Sans', verdana, arial, sans-serif; font-size: 12px; fill: rgb(42, 63, 95); fill-opacity: 1; white-space: pre; opacity: 1;" transform="translate(0,271.59000000000003)">120</text></g><g class="ytick"><text text-anchor="end" x="79" y="4.199999999999999" style="font-family: 'Open Sans', verdana, arial, sans-serif; font-size: 12px; fill: rgb(42, 63, 95); fill-opacity: 1; white-space: pre; opacity: 1;" transform="translate(0,231.89)">130</text></g><g class="ytick"><text text-anchor="end" x="79" y="4.199999999999999" style="font-family: 'Open Sans', verdana, arial, sans-serif; font-size: 12px; fill: rgb(42, 63, 95); fill-opacity: 1; white-space: pre; opacity: 1;" transform="translate(0,192.2)">140</text></g><g class="ytick"><text text-anchor="end" x="79" y="4.199999999999999" style="font-family: 'Open Sans', verdana, arial, sans-serif; font-size: 12px; fill: rgb(42, 63, 95); fill-opacity: 1; white-space: pre; opacity: 1;" transform="translate(0,152.51)">150</text></g><g class="ytick"><text text-anchor="end" x="79" y="4.199999999999999" style="font-family: 'Open Sans', verdana, arial, sans-serif; font-size: 12px; fill: rgb(42, 63, 95); fill-opacity: 1; white-space: pre; opacity: 1;" transform="translate(0,112.81)">160</text></g><g class="ytick"><text text-anchor="end" x="79" y="4.199999999999999" style="font-family: 'Open Sans', verdana, arial, sans-serif; font-size: 12px; fill: rgb(42, 63, 95); fill-opacity: 1; white-space: pre; opacity: 1;" transform="translate(0,73.12)">170</text></g></g><g class="overaxes-above"/></g></g><g class="polarlayer"/><g class="smithlayer"/><g class="ternarylayer"/><g class="geolayer"/><g class="funnelarealayer"/><g class="pielayer"/><g class="iciclelayer"/><g class="treemaplayer"/><g class="sunburstlayer"/><g class="glimages"/><defs id="topdefs-00d0ff"><g class="clips"/><clipPath id="legend00d0ff"><rect width="80" height="86" x="0" y="0"/></clipPath></defs><g class="layer-above"><g class="imagelayer"/><g class="shapelayer"/></g><g class="infolayer"><g class="legend" pointer-events="all" transform="translate(608.36,60)"><rect class="bg" shape-rendering="crispEdges" style="stroke: rgb(68, 68, 68); stroke-opacity: 1; fill: rgb(255, 255, 255); fill-opacity: 1; stroke-width: 0px;" width="80" height="86" x="0" y="0"/><g class="scrollbox" transform="" clip-path="url(#legend00d0ff)"><text class="legendtitletext" text-anchor="start" x="2" y="18.2" style="font-family: 'Open Sans', verdana, arial, sans-serif; font-size: 14px; fill: rgb(42, 63, 95); fill-opacity: 1; white-space: pre;">variable</text><g class="groups" transform=""><g class="traces" transform="translate(0,32.7)" style="opacity: 1;"><text class="legendtext" text-anchor="start" x="40" y="4.680000000000001" style="font-family: 'Open Sans', verdana, arial, sans-serif; font-size: 12px; fill: rgb(42, 63, 95); fill-opacity: 1; white-space: pre;">100.0</text><g class="layers" style="opacity: 1;"><g class="legendfill"/><g class="legendlines"><path class="js-line" d="M5,0h30" style="fill: none; stroke: rgb(99, 110, 250); stroke-opacity: 1; stroke-width: 2px;"/></g><g class="legendsymbols"><g class="legendpoints"/></g></g><rect class="legendtoggle" x="0" y="-9.5" width="74.359375" height="19" style="fill: rgb(0, 0, 0); fill-opacity: 0;"/></g></g><g class="groups" transform=""><g class="traces" transform="translate(0,51.7)" style="opacity: 1;"><text class="legendtext" text-anchor="start" x="40" y="4.680000000000001" style="font-family: 'Open Sans', verdana, arial, sans-serif; font-size: 12px; fill: rgb(42, 63, 95); fill-opacity: 1; white-space: pre;">90.0</text><g class="layers" style="opacity: 1;"><g class="legendfill"/><g class="legendlines"><path class="js-line" d="M5,0h30" style="fill: none; stroke: rgb(239, 85, 59); stroke-opacity: 1; stroke-width: 2px;"/></g><g class="legendsymbols"><g class="legendpoints"/></g></g><rect class="legendtoggle" x="0" y="-9.5" width="74.359375" height="19" style="fill: rgb(0, 0, 0); fill-opacity: 0;"/></g></g><g class="groups" transform=""><g class="traces" transform="translate(0,70.7)" style="opacity: 1;"><text class="legendtext" text-anchor="start" x="40" y="4.680000000000001" style="font-family: 'Open Sans', verdana, arial, sans-serif; font-size: 12px; fill: rgb(42, 63, 95); fill-opacity: 1; white-space: pre;">125.0</text><g class="layers" style="opacity: 1;"><g class="legendfill"/><g class="legendlines"><path class="js-line" d="M5,0h30" style="fill: none; stroke: rgb(0, 204, 150); stroke-opacity: 1; stroke-width: 2px;"/></g><g class="legendsymbols"><g class="legendpoints"/></g></g><rect class="legendtoggle" x="0" y="-9.5" width="74.359375" height="19" style="fill: rgb(0, 0, 0); fill-opacity: 0;"/></g></g></g><rect class="scrollbar" rx="20" ry="3" width="0" height="0" style="fill: rgb(128, 139, 164); fill-opacity: 1;" x="0" y="0"/></g><g class="g-gtitle"/><g class="g-xtitle"><text class="xtitle" x="339" y="460.3" text-anchor="middle" style="font-family: 'Open Sans', verdana, arial, sans-serif; font-size: 14px; fill: rgb(42, 63, 95); opacity: 1; font-weight: normal; white-space: pre;">index</text></g><g class="g-ytitle"><text class="ytitle" transform="rotate(-90,31.793750000000003,240)" x="31.793750000000003" y="240" text-anchor="middle" style="font-family: 'Open Sans', verdana, arial, sans-serif; font-size: 14px; fill: rgb(42, 63, 95); opacity: 1; font-weight: normal; white-space: pre;">value</text></g></g></svg>